<svg width="600" height="600" version="1.1" xmlns="http://www.w3.org/2000/svg" desc="Created with imagetracer.js version 1.2.6" ><path fill="rgb(234,234,234)" stroke="rgb(234,234,234)" stroke-width="1" opacity="0.08627450980392157" d="M 152.5 108 L 162 108.5 L 152 109 L 152 113 L 153.5 113 L 176 124 L 175.5 126 L 174.5 125 L 172 126.5 Q 172.5 122.5 169.5 122 L 167 122.5 L 167.5 124 Q 164.9 124.8 166 121.5 Q 164.3 118.3 159.5 118 L 159.5 120 Q 157.8 116.9 156 118.5 L 157.5 116 L 155.5 115 L 154 115.5 L 153.5 114 L 148 116 L 148.5 114 L 150 114.5 L 151 112.5 L 150 110.5 L 152.5 108 Z " /><path fill="rgb(234,234,234)" stroke="rgb(234,234,234)" stroke-width="1" opacity="0.08627450980392157" d="M 166.5 108 L 174.5 109 L 176.5 109 L 182 109.5 L 167.5 110 L 166.5 108 Z " /><path fill="rgb(234,234,234)" stroke="rgb(234,234,234)" stroke-width="1" opacity="0.08627450980392157" d="M 196.5 108 L 200 108.5 L 196 109.5 L 201.5 110 L 205.5 108 L 205.5 109 Q 203.2 112.2 196.5 111 L 194.5 111 L 187 110.5 L 194.5 110 L 196.5 108 Z " /><path fill="rgb(234,234,234)" stroke="rgb(234,234,234)" stroke-width="1" opacity="0.08627450980392157" d="M 210.5 108 L 216 110 Q 214.9 107.3 217.5 108 L 216.5 111 L 219.5 110 L 220 112 L 208.5 112 L 206 110.5 L 212 109.5 L 210.5 108 Z " /><path fill="rgb(234,234,234)" stroke="rgb(234,234,234)" stroke-width="1" opacity="0.08627450980392157" d="M 228.5 112 L 244 112.5 L 228.5 113 L 228.5 112 Z " /><path fill="rgb(234,234,234)" stroke="rgb(234,234,234)" stroke-width="1" opacity="0.08627450980392157" d="M 246.5 112 L 250.5 113 L 252.5 112 L 259 113.5 L 248.5 114 L 246.5 112 Z " /><path fill="rgb(234,234,234)" stroke="rgb(234,234,234)" stroke-width="1" opacity="0.08627450980392157" d="M 260 112 Q 265.2 110.3 264 114 Q 258.8 115.7 260 112 Z " /><path fill="rgb(234,234,234)" stroke="rgb(234,234,234)" stroke-width="1" opacity="0.08627450980392157" d="M 268 112 Q 274 110.8 276.5 114 L 287.5 114 L 287.5 113 L 286 112.5 L 287.5 112 L 289.5 113 L 292.5 112 L 292.5 113 L 287.5 115 L 268 115 L 268 112 Z M 271 113 L 271 114 L 274 114 L 271 113 Z " /><path fill="rgb(234,234,234)" stroke="rgb(234,234,234)" stroke-width="1" opacity="0.08627450980392157" d="M 280.5 112 L 284 112.5 L 280.5 113 L 280.5 112 Z " /><path fill="rgb(234,234,234)" stroke="rgb(234,234,234)" stroke-width="1" opacity="0.08627450980392157" d="M 295.5 112 L 296.5 115 L 298.5 114 L 304 115.5 L 290.5 116 L 290.5 115 L 296 113.5 L 295.5 112 Z " /><path fill="rgb(234,234,234)" stroke="rgb(234,234,234)" stroke-width="1" opacity="0.08627450980392157" d="M 60.5 116 L 62.5 116 L 68 116.5 L 68 118.5 Q 67.1 121.5 71.5 120 L 76 120.5 L 72.5 122 L 60 119 L 60.5 116 Z " /><path fill="rgb(234,234,234)" stroke="rgb(234,234,234)" stroke-width="1" opacity="0.08627450980392157" d="M 309.5 116 L 319 116.5 L 309.5 117 L 309.5 116 Z " /><path fill="rgb(234,234,234)" stroke="rgb(234,234,234)" stroke-width="1" opacity="0.08627450980392157" d="M 320.5 116 L 326 116.5 L 320.5 117 L 320.5 116 Z " /><path fill="rgb(234,234,234)" stroke="rgb(234,234,234)" stroke-width="1" opacity="0.08627450980392157" d="M 329.5 116 L 337.5 117 L 339.5 116 L 344 117.5 L 330.5 118 L 329.5 116 Z " /><path fill="rgb(234,234,234)" stroke="rgb(234,234,234)" stroke-width="1" opacity="0.08627450980392157" d="M 345.5 116 Q 347.8 115.3 347 117.5 L 345.5 116 Z " /><path fill="rgb(234,234,234)" stroke="rgb(234,234,234)" stroke-width="1" opacity="0.08627450980392157" d="M 350.5 116 L 350.5 118 Q 352.8 118.8 352 116.5 L 353 116.5 L 353.5 120 L 356 119 L 356.5 122 L 358 121.5 Q 357.3 123.8 359.5 123 L 362.5 125 Q 363.8 122.7 365 125.5 L 366.5 128 L 371 129 L 372 131.5 L 371.5 133 L 373.5 134 L 375 133.5 Q 372.2 135.3 376.5 137 L 379.5 136 L 382.5 141 L 385.5 140 L 385.5 141 L 383 141.5 L 387 144 L 387.5 142 L 388.5 145 L 390.5 144 L 390.5 145 L 389 145.5 L 391 146 Q 389.9 148.7 392.5 148 L 394.5 149 L 396 148.5 L 398.5 153 L 400.5 152 L 400.5 154 Q 402.8 153.3 402 155.5 L 404 155.5 Q 401.7 156.8 404.5 158 L 407.5 157 L 407.5 158 L 406 158.5 L 408 159 L 408.5 161 L 410 160.5 L 410.5 162 Q 411.8 159.8 413 162.5 L 412.5 165 L 354.5 121 L 349 119 L 350.5 116 Z " /><path fill="rgb(234,234,234)" stroke="rgb(234,234,234)" stroke-width="1" opacity="0.08627450980392157" d="M 57.5 120 L 60 120.5 L 59 122.5 L 68 133.5 Q 65.7 134.8 68.5 136 L 72 138.5 L 113 190.5 L 112.5 192 L 117 195.5 L 123 203.5 L 121.5 203 L 116 199.5 L 117 197.5 L 113 195.5 L 114 194.5 L 110.5 191 Q 109.3 193.3 108 190.5 L 111 189.5 L 105.5 187 L 104 187.5 L 104.5 184 L 107 185.5 L 105.5 183 L 104 183 L 104 180 Q 101.3 181.1 102 178.5 L 98.5 174 L 97 174.5 L 97.5 173 L 96 172.5 L 96.5 171 L 94.5 172 L 92 171.5 L 93 168.5 L 91.5 165 Q 89.7 168.8 88 165.5 L 89 162.5 L 86.5 159 Q 85.2 161.3 84 158.5 L 84 156.5 L 83.5 155 L 82 155.5 Q 83.1 152.2 80.5 153 L 79 149 L 76 149 L 76 145 L 74.5 145 Q 71.3 143.8 72 140 Q 69 141.3 70 137.5 L 68 137.5 L 66.5 135 L 64.5 136 L 64 134 L 67 133.5 L 64 132.5 L 65 131.5 L 62 128.5 L 58.5 123 L 56 122.5 L 58 121.5 L 57.5 120 Z M 94 169 L 95 171 Q 96 168 94 169 Z " /><path fill="rgb(234,234,234)" stroke="rgb(234,234,234)" stroke-width="1" opacity="0.08627450980392157" d="M 78.5 121 L 81.5 123 L 83.5 122 L 83.5 124 L 86 124.5 L 83.5 125 L 78.5 122 L 76.5 123 L 76.5 122 L 78.5 121 Z " /><path fill="rgb(234,234,234)" stroke="rgb(234,234,234)" stroke-width="1" opacity="0.08627450980392157" d="M 90.5 124 L 92.5 125 L 93.5 124 L 97 127.5 L 95 128 L 93.5 125 L 93 127 Q 90.3 128.1 91 125.5 L 89.5 126 L 87 125.5 L 90.5 124 Z " /><path fill="rgb(234,234,234)" stroke="rgb(234,234,234)" stroke-width="1" opacity="0.08627450980392157" d="M 177 125 L 183 127.5 L 181.5 128 L 178.5 127 L 176.5 128 L 177 126.5 L 177 125 Z " /><path fill="rgb(234,234,234)" stroke="rgb(234,234,234)" stroke-width="1" opacity="0.08627450980392157" d="M 99.5 128 L 102 128.5 L 99.5 129 L 99.5 128 Z " /><path fill="rgb(234,234,234)" stroke="rgb(234,234,234)" stroke-width="1" opacity="0.08627450980392157" d="M 104.5 128 L 106.5 129 L 108.5 128 L 108.5 129 L 107 129.5 L 113 131.5 L 110.5 132 L 103 129.5 L 104.5 128 Z " /><path fill="rgb(234,234,234)" stroke="rgb(234,234,234)" stroke-width="1" opacity="0.08627450980392157" d="M 184.5 128 L 190 130.5 L 188 131.5 L 190.5 132 L 192.5 132 L 208 137 Q 206.5 140.8 209.5 140 L 212 141 L 212.5 143 L 214 142.5 L 213.5 144 L 216 142.5 Q 216.8 139.9 213.5 141 L 211 139.5 L 212.5 139 L 231 145.5 L 230 148 L 233 147.5 L 232.5 146 L 237 147.5 L 235.5 150 L 239.5 148 L 243 149.5 L 240 150.5 L 242 151.5 L 239.5 152 L 236.5 151 L 229 147.5 Q 229.8 144.9 226.5 146 Q 225 142.5 223.5 145 L 218.5 144 L 218.5 145 L 227.5 150 L 229 149.5 L 228 152 L 208.5 143 L 203.5 139 L 198.5 139 L 192 135.5 L 194.5 135 L 197 136 Q 198.3 132.3 192.5 134 L 187 131.5 L 187.5 130 Q 182.4 131.3 184.5 128 Z M 205 138 Q 205 142 207 139 L 205 138 Z " /><path fill="rgb(234,234,234)" stroke="rgb(234,234,234)" stroke-width="1" opacity="0.08627450980392157" d="M 114.5 132 L 119.5 133 L 121.5 133 L 123.5 132 L 125.5 132 L 129.5 136 Q 135 134.5 136.5 137 L 138.5 136 L 138.5 137 L 137 137.5 L 139 138.5 L 137.5 139 L 126 135.5 L 126.5 134 L 122.5 135 L 114.5 133 L 114.5 132 Z " /><path fill="rgb(234,234,234)" stroke="rgb(234,234,234)" stroke-width="1" opacity="0.08627450980392157" d="M 142.5 137 L 145 137.5 L 142.5 138 L 142.5 137 Z " /><path fill="rgb(234,234,234)" stroke="rgb(234,234,234)" stroke-width="1" opacity="0.08627450980392157" d="M 141.5 139 L 144 139.5 L 141.5 140 L 141.5 139 Z " /><path fill="rgb(234,234,234)" stroke="rgb(234,234,234)" stroke-width="1" opacity="0.08627450980392157" d="M 145.5 140 L 151.5 141 L 153.5 140 L 155 143 L 145.5 141 L 145.5 140 Z " /><path fill="rgb(234,234,234)" stroke="rgb(234,234,234)" stroke-width="1" opacity="0.08627450980392157" d="M 158.5 140 L 168 144.5 Q 167.3 146.8 169.5 146 L 169.5 147 L 166.5 145 L 164.5 146 L 160 144.5 L 164 143.5 L 158.5 141 L 158.5 140 Z " /><path fill="rgb(234,234,234)" stroke="rgb(234,234,234)" stroke-width="1" opacity="0.08627450980392157" d="M 174.5 144 L 181 147.5 L 180.5 149 L 182 149.5 L 179.5 150 L 172 147.5 L 174 146.5 L 172 145.5 L 174.5 144 Z M 176 146 L 175 148 L 178 148 L 176 146 Z " /><path fill="rgb(234,234,234)" stroke="rgb(234,234,234)" stroke-width="1" opacity="0.08627450980392157" d="M 185.5 148 L 188 149.5 L 187.5 151 L 189 151.5 L 187.5 152 L 183 150.5 L 185 150 L 185.5 148 Z " /><path fill="rgb(234,234,234)" stroke="rgb(234,234,234)" stroke-width="1" opacity="0.08627450980392157" d="M 244.5 150 L 251 151.5 L 246.5 152 L 244.5 150 Z " /><path fill="rgb(234,234,234)" stroke="rgb(234,234,234)" stroke-width="1" opacity="0.08627450980392157" d="M 191.5 152 L 194 152.5 L 191.5 153 L 191.5 152 Z " /><path fill="rgb(234,234,234)" stroke="rgb(234,234,234)" stroke-width="1" opacity="0.08627450980392157" d="M 195.5 152 L 197.5 152 L 200 152.5 L 198 153.5 L 202.5 155 L 203.5 153 L 205 155.5 L 202.5 156 L 195 154 L 195.5 152 Z " /><path fill="rgb(234,234,234)" stroke="rgb(234,234,234)" stroke-width="1" opacity="0.08627450980392157" d="M 252.5 152 L 258 153.5 L 257.5 156 L 254.5 155 L 253 155.5 L 254 154.5 L 252.5 152 Z " /><path fill="rgb(234,234,234)" stroke="rgb(234,234,234)" stroke-width="1" opacity="0.08627450980392157" d="M 402.5 152 L 403.5 154 L 402.5 152 Z " /><path fill="rgb(234,234,234)" stroke="rgb(234,234,234)" stroke-width="1" opacity="0.08627450980392157" d="M 259.5 154 L 266 155.5 L 262.5 156 L 260.5 156 L 259.5 154 Z " /><path fill="rgb(234,234,234)" stroke="rgb(234,234,234)" stroke-width="1" opacity="0.08627450980392157" d="M 206.5 156 L 211.5 157 Q 213 154.5 214.5 158 L 217 157.5 L 216.5 156 L 219 157 Q 217.9 159.7 220.5 159 L 220.5 160 Q 217.2 161.1 218 158.5 L 216.5 159 L 206.5 157 L 206.5 156 Z " /><path fill="rgb(234,234,234)" stroke="rgb(234,234,234)" stroke-width="1" opacity="0.08627450980392157" d="M 268.5 156 Q 270.8 155.3 270 157.5 L 269.5 160 L 268 158.5 L 268.5 156 Z " /><path fill="rgb(234,234,234)" stroke="rgb(234,234,234)" stroke-width="1" opacity="0.08627450980392157" d="M 272 157 L 284 159.5 L 279.5 160 L 274.5 159 Q 272.8 162.8 271 159.5 L 272 157 Z " /><path fill="rgb(234,234,234)" stroke="rgb(234,234,234)" stroke-width="1" opacity="0.08627450980392157" d="M 222.5 160 L 228.5 161 L 230 160.5 L 229.5 162 Q 231.8 162.8 231 160.5 L 232 160.5 Q 233.3 164.3 229.5 163 L 222.5 161 L 222.5 160 Z " /><path fill="rgb(234,234,234)" stroke="rgb(234,234,234)" stroke-width="1" opacity="0.08627450980392157" d="M 275.5 160 L 274.5 162 L 275.5 160 Z " /><path fill="rgb(234,234,234)" stroke="rgb(234,234,234)" stroke-width="1" opacity="0.08627450980392157" d="M 285.5 160 L 289 160.5 L 284.5 162 L 285.5 160 Z " /><path fill="rgb(234,234,234)" stroke="rgb(234,234,234)" stroke-width="1" opacity="0.08627450980392157" d="M 290.5 161 L 294 161.5 L 290 164.5 L 292 165.5 L 290.5 166 L 286 164 L 286.5 162 L 288.5 162 L 290.5 161 Z " /><path fill="rgb(234,234,234)" stroke="rgb(234,234,234)" stroke-width="1" opacity="0.08627450980392157" d="M 296.5 162 L 306 163.5 L 300.5 164 L 296.5 163 L 294.5 164 L 294.5 163 L 296.5 162 Z " /><path fill="rgb(234,234,234)" stroke="rgb(234,234,234)" stroke-width="1" opacity="0.08627450980392157" d="M 233.5 163 Q 238.3 162.3 240 164.5 L 237.5 165 L 233.5 164 L 233.5 163 Z " /><path fill="rgb(234,234,234)" stroke="rgb(234,234,234)" stroke-width="1" opacity="0.08627450980392157" d="M 242.5 164 L 245.5 166 Q 247 162.5 248.5 165 L 255 167 Q 256.3 170 252.5 169 L 244 167 L 243.5 165 L 241.5 166 L 242.5 164 Z " /><path fill="rgb(234,234,234)" stroke="rgb(234,234,234)" stroke-width="1" opacity="0.08627450980392157" d="M 308.5 164 L 315.5 166 L 319.5 165 L 322.5 167 L 327.5 166 L 327.5 167 L 321.5 168 L 319.5 168 L 318 167.5 L 320 166.5 L 316.5 166 L 310.5 169 L 309.5 167 L 312 165.5 Q 307.6 165.9 308.5 164 Z " /><path fill="rgb(234,234,234)" stroke="rgb(234,234,234)" stroke-width="1" opacity="0.08627450980392157" d="M 416.5 164 L 418 164.5 L 416 165.5 L 419 167.5 L 419.5 166 L 420 167.5 L 419.5 169 L 423 170 Q 421.9 172.7 424.5 172 L 428 174.5 Q 427.3 176.8 429.5 176 Q 431.7 180.3 434 178.5 L 434.5 180 L 436.5 180 L 440 180.5 L 437 181.5 L 440 182.5 L 442.5 186 L 443.5 184 L 447.5 190 Q 448.6 187.3 452 188 L 451 191.5 L 454.5 194 L 454.5 192 L 456 195.5 L 455.5 197 L 450 192.5 Q 451.1 189.2 448.5 190 L 448.5 192 L 414 165.5 L 416.5 164 Z " /><path fill="rgb(234,234,234)" stroke="rgb(234,234,234)" stroke-width="1" opacity="0.08627450980392157" d="M 329.5 167 Q 334 166 335 168.5 L 336 171.5 L 334.5 171 L 332 169.5 L 332.5 168 Q 328.5 168.8 329.5 167 Z " /><path fill="rgb(234,234,234)" stroke="rgb(234,234,234)" stroke-width="1" opacity="0.08627450980392157" d="M 256.5 168 L 260.5 170 Q 265.5 171 266.5 168 L 273 171.5 L 271 172.5 L 273.5 173 L 277.5 172 L 277.5 173 L 276 173.5 L 278 174.5 L 275.5 175 L 268 172.5 L 270 171.5 L 267.5 170 L 267 172 L 256 170 L 256.5 168 Z " /><path fill="rgb(234,234,234)" stroke="rgb(234,234,234)" stroke-width="1" opacity="0.08627450980392157" d="M 283.5 172 L 284 174.5 L 283.5 176 Q 290 174.5 291.5 178 L 295.5 178 L 298.5 180 L 305.5 181 L 307.5 180 L 307.5 181 L 306 181.5 L 308 182.5 L 306.5 183 L 279 175.5 L 279.5 173 L 283 174 L 283.5 172 Z " /><path fill="rgb(234,234,234)" stroke="rgb(234,234,234)" stroke-width="1" opacity="0.08627450980392157" d="M 336 176 Q 338.7 174.9 338 177.5 L 338.5 179 L 336 177.5 L 336 176 Z " /><path fill="rgb(234,234,234)" stroke="rgb(234,234,234)" stroke-width="1" opacity="0.08627450980392157" d="M 434.5 176 L 435.5 178 L 434.5 176 Z " /><path fill="rgb(234,234,234)" stroke="rgb(234,234,234)" stroke-width="1" opacity="0.08627450980392157" d="M 336.5 181 Q 339.1 180.2 338 183.5 L 337 183.5 L 336.5 181 Z " /><path fill="rgb(234,234,234)" stroke="rgb(234,234,234)" stroke-width="1" opacity="0.08627450980392157" d="M 205.5 182 L 219 191.5 L 216 193 L 217 190.5 L 215.5 190 L 214 190.5 L 213.5 189 L 213 191.5 Q 214.6 196.2 221 195 L 220 192.5 L 223.5 195 L 242 208.5 L 239.5 207 L 237.5 208 L 237 205 L 229.5 201 L 229.5 203 Q 227.3 203.8 228 201.5 Q 230.3 200.3 227.5 199 L 224 200 L 225 196.5 L 222.5 195 L 219 197.5 L 220 199.5 L 218.5 199 Q 216.3 199.8 217 197.5 L 206 184.5 L 205.5 182 Z " /><path fill="rgb(234,234,234)" stroke="rgb(234,234,234)" stroke-width="1" opacity="0.08627450980392157" d="M 309.5 182 L 313 183.5 L 310.5 184 L 309.5 182 Z " /><path fill="rgb(234,234,234)" stroke="rgb(234,234,234)" stroke-width="1" opacity="0.08627450980392157" d="M 339.5 183 Q 341.8 182.3 341 184.5 L 345 193.5 L 344.5 195 Q 347.1 194.2 346 197.5 L 349.5 203 L 359 210.5 L 358.5 212 L 356.5 209 L 353.5 207 L 352 207.5 Q 354.3 206.3 351.5 205 L 349.5 204 L 348 204.5 L 348.5 203 Q 346.3 203.8 347 201.5 L 346 201.5 L 345.5 204 L 344 202.5 L 345.5 200 L 344 199.5 L 346 198.5 L 340 191.5 L 340 189 L 342 188.5 L 340 186.5 L 341 185.5 L 339.5 183 Z " /><path fill="rgb(234,234,234)" stroke="rgb(234,234,234)" stroke-width="1" opacity="0.08627450980392157" d="M 314.5 184 L 320 187 L 319 191.5 L 320 194.5 L 319 194.5 L 316 185 L 314.5 184 Z " /><path fill="rgb(234,234,234)" stroke="rgb(234,234,234)" stroke-width="1" opacity="0.08627450980392157" d="M 318.5 184 Q 320.8 183.3 320 185.5 L 318.5 184 Z " /><path fill="rgb(234,234,234)" stroke="rgb(234,234,234)" stroke-width="1" opacity="0.08627450980392157" d="M 320.5 196 Q 323.8 194.9 323 197.5 L 323 199.5 L 322.5 202 L 321 198.5 L 321.5 197 L 320.5 196 Z " /><path fill="rgb(234,234,234)" stroke="rgb(234,234,234)" stroke-width="1" opacity="0.08627450980392157" d="M 457 196 Q 459.7 194.9 459 197.5 L 460 199.5 L 457 197.5 L 457 196 Z " /><path fill="rgb(234,234,234)" stroke="rgb(234,234,234)" stroke-width="1" opacity="0.08627450980392157" d="M 217.5 200 L 218 201.5 L 217 204 Q 209.5 201.7 196.5 203 L 192.5 204 L 191.5 203 L 176.5 203 L 172.5 204 L 168.5 203 L 167.5 204 L 148.5 204 L 147.5 203 L 124 202.5 L 217 202 L 217.5 200 Z " /><path fill="rgb(234,234,234)" stroke="rgb(234,234,234)" stroke-width="1" opacity="0.08627450980392157" d="M 461.5 200 L 463.5 201 L 465.5 201 L 467.5 200 L 467 201.5 L 468 205 L 471 205.5 L 470 206.5 L 471.5 209 L 463.5 203 L 461.5 200 Z " /><path fill="rgb(234,234,234)" stroke="rgb(234,234,234)" stroke-width="1" opacity="0.08627450980392157" d="M 323.5 203 L 325.5 207 L 327.5 204 L 327.5 207 L 326 207.5 L 330 209 L 330.5 211 L 331.5 209 L 332 210.5 Q 329.8 211.7 332.5 213 L 334.5 214 L 336 213.5 Q 333.8 214.7 336.5 216 L 345.5 222 L 348 222 Q 346.7 225.3 351.5 224 L 355.5 229 L 357 228.5 L 359.5 232 L 362.5 234 L 364 233.5 Q 361.8 234.8 364.5 236 Q 367.8 234.9 367 237.5 L 369 238.5 L 368 236.5 L 370.5 236 L 372 237.5 Q 372.8 239.8 370.5 239 L 372.5 242 L 373.5 240 L 374.5 242 L 376 241.5 Q 373.2 243.2 377.5 245 L 379 244.5 L 378 245.5 L 379.5 248 L 325 209 L 323.5 203 Z " /><path fill="rgb(234,234,234)" stroke="rgb(234,234,234)" stroke-width="1" opacity="0.08627450980392157" d="M 243.5 209 L 268 227.5 L 266 228 L 265.5 226 Q 264 228.5 262.5 225 L 259.5 223 L 257.5 223 L 256 222.5 L 258 221.5 L 256 221 L 255.5 219 L 254 219.5 L 254.5 218 L 247 214 L 246.5 216 L 246 214 L 244 213.5 L 246 212.5 L 243 211.5 L 243.5 209 Z " /><path fill="rgb(234,234,234)" stroke="rgb(234,234,234)" stroke-width="1" opacity="0.08627450980392157" d="M 473.5 209 L 476 210 L 475.5 212 L 473.5 209 Z " /><path fill="rgb(234,234,234)" stroke="rgb(234,234,234)" stroke-width="1" opacity="0.08627450980392157" d="M 240.5 210 Q 242.8 209.3 242 211.5 L 240.5 210 Z " /><path fill="rgb(234,234,234)" stroke="rgb(234,234,234)" stroke-width="1" opacity="0.08627450980392157" d="M 360.5 211 L 395 238.5 L 392.5 237 L 389 236 L 387.5 233 Q 386.1 230.4 381.5 231 L 380 231.5 L 381 228.5 L 378.5 227 Q 377.3 229.3 376 226.5 Q 378.3 225.3 375.5 224 Q 373.3 224.8 374 222.5 L 372 222.5 L 370.5 220 L 366.5 218 L 366.5 220 L 364 219.5 L 365 216.5 L 361 213.5 L 360.5 216 L 360.5 211 Z " /><path fill="rgb(234,234,234)" stroke="rgb(234,234,234)" stroke-width="1" opacity="0.08627450980392157" d="M 143.5 212 L 144 215 L 140 213.5 L 143.5 212 Z " /><path fill="rgb(234,234,234)" stroke="rgb(234,234,234)" stroke-width="1" opacity="0.08627450980392157" d="M 152.5 212 L 167.5 212 L 168.5 213 Q 180 211.5 187.5 214 Q 189 211.5 194.5 213 L 193.5 215 L 188.5 214 L 184.5 215 L 180.5 214 L 176.5 215 Q 174.8 212.3 168.5 214 L 167.5 215 L 152.5 215 L 148 213.5 L 152.5 212 Z M 153 213 L 153 214 L 168 214 L 153 213 Z " /><path fill="rgb(234,234,234)" stroke="rgb(234,234,234)" stroke-width="1" opacity="0.08627450980392157" d="M 477.5 212 L 480 212.5 L 480.5 214 L 482 213.5 L 481.5 215 L 485.5 218 L 488 218 Q 486.9 220.7 489.5 220 L 492 223.5 L 488.5 221 L 479.5 215 L 477.5 212 Z " /><path fill="rgb(234,234,234)" stroke="rgb(234,234,234)" stroke-width="1" opacity="0.08627450980392157" d="M 201.5 214 Q 204.8 212.9 204 215.5 L 202.5 215 L 201.5 214 Z " /><path fill="rgb(234,234,234)" stroke="rgb(234,234,234)" stroke-width="1" opacity="0.08627450980392157" d="M 136.5 216 L 139 216.5 L 138 219.5 Q 140 217.8 142 221.5 L 140.5 221 L 137 219.5 L 136.5 216 Z " /><path fill="rgb(234,234,234)" stroke="rgb(234,234,234)" stroke-width="1" opacity="0.08627450980392157" d="M 205.5 216 L 207.5 216 L 209.5 217 L 211 216.5 L 210 218.5 L 213 220 L 213.5 222 L 216 221 L 218.5 225 L 219.5 224 L 223 227.5 Q 222.2 230.1 225.5 229 L 227 228.5 L 226 230.5 L 228 230.5 Q 227.1 233.5 231.5 232 L 235.5 237 L 237 236.5 L 236 237.5 L 237.5 240 L 207.5 219 L 205.5 216 Z " /><path fill="rgb(234,234,234)" stroke="rgb(234,234,234)" stroke-width="1" opacity="0.08627450980392157" d="M 343.5 216 L 344 218 L 342 217.5 L 343.5 216 Z " /><path fill="rgb(234,234,234)" stroke="rgb(234,234,234)" stroke-width="1" opacity="0.08627450980392157" d="M 142.5 223 L 164 251.5 L 162.5 252 L 158 245 L 156 244.5 Q 158.3 243.3 155.5 242 L 152.5 244 L 152.5 241 L 154 240.5 L 150.5 235 Q 146.3 236.3 148 231.5 L 146.5 232 L 145 231.5 L 147 230.5 L 144 228.5 L 145 227.5 L 142 224.5 L 142.5 223 Z " /><path fill="rgb(234,234,234)" stroke="rgb(234,234,234)" stroke-width="1" opacity="0.08627450980392157" d="M 493.5 224 L 495.5 225 L 498 224 L 497 226.5 L 500.5 229 Q 502.3 226.2 504 230.5 L 506.5 234 L 511.5 237 L 513 236.5 Q 512.3 238.8 514.5 238 L 514.5 236 L 516 239.5 L 515.5 242 L 513.5 242 Q 510.5 241.1 512 245.5 L 508.5 247 L 505 249.5 L 506.5 250 L 508 249.5 Q 509.1 252.8 506.5 252 L 504 251 L 503.5 253 L 502 252.5 Q 501.3 254.8 503.5 254 L 503.5 255 L 500.5 253 L 500 255 L 498 255.5 L 500 256 L 498.5 260 L 495 261.5 L 496 263.5 L 495 263.5 Q 495.8 261.3 493.5 262 L 491.5 262 L 488.5 265 L 487 265.5 L 489 269 L 486.5 268 L 482 270.5 Q 482.8 272.8 480.5 272 L 479 274.5 L 479.5 276 L 474 277.5 L 475.5 280 L 473 278.5 L 469.5 283 Q 466.9 282.2 468 285.5 L 467 288 L 465 287.5 L 465.5 286 Q 463.3 285.3 464 287.5 L 462 288.5 L 465.5 284 L 513 240.5 L 512 238 L 495.5 227 L 493.5 224 Z " /><path fill="rgb(234,234,234)" stroke="rgb(234,234,234)" stroke-width="1" opacity="0.08627450980392157" d="M 269.5 228 L 271.5 231 L 269.5 232 L 270 230.5 L 269.5 228 Z " /><path fill="rgb(234,234,234)" stroke="rgb(234,234,234)" stroke-width="1" opacity="0.08627450980392157" d="M 273.5 231 L 275.5 234 L 274 233.5 L 272.5 236 L 272 234.5 Q 275.1 232.8 273.5 231 Z " /><path fill="rgb(234,234,234)" stroke="rgb(234,234,234)" stroke-width="1" opacity="0.08627450980392157" d="M 277.5 234 L 279.5 237 L 276 235.5 L 277.5 234 Z " /><path fill="rgb(234,234,234)" stroke="rgb(234,234,234)" stroke-width="1" opacity="0.08627450980392157" d="M 238.5 236 L 239.5 238 Q 236.7 238.7 238.5 236 Z " /><path fill="rgb(234,234,234)" stroke="rgb(234,234,234)" stroke-width="1" opacity="0.08627450980392157" d="M 281.5 237 L 291 244.5 L 289.5 245 Q 287.8 241.9 286 243.5 L 285.5 241 L 284.5 243 L 284 241.5 L 284.5 240 L 281 239 L 281.5 237 Z " /><path fill="rgb(234,234,234)" stroke="rgb(234,234,234)" stroke-width="1" opacity="0.08627450980392157" d="M 396.5 239 L 428 264.5 L 426.5 264 L 422.5 261 L 420.5 264 L 421 262.5 Q 422.5 258.1 419.5 259 L 418 259.5 Q 420.3 258.2 417.5 257 Q 414.9 257.7 416 255 L 412 255 L 412 252.5 L 409 251.5 L 407.5 249 L 403.5 246 L 402.5 248 L 400.5 245 L 402 244.5 L 398.5 242 L 396 243.5 L 396 241.5 L 396.5 239 Z " /><path fill="rgb(234,234,234)" stroke="rgb(234,234,234)" stroke-width="1" opacity="0.08627450980392157" d="M 239.5 240 L 242.5 241 L 244 240.5 L 243.5 242 Q 245.8 241.3 245 243.5 L 248 245.5 L 248.5 244 L 249.5 246 L 251.5 245 L 251 246.5 Q 249.9 249.8 252.5 249 L 254.5 252 L 241.5 243 L 239.5 240 Z " /><path fill="rgb(234,234,234)" stroke="rgb(234,234,234)" stroke-width="1" opacity="0.08627450980392157" d="M 292.5 245 L 294.5 248 L 292 246.5 L 293 248.5 L 291 247.5 L 292.5 245 Z " /><path fill="rgb(234,234,234)" stroke="rgb(234,234,234)" stroke-width="1" opacity="0.08627450980392157" d="M 288.5 246 L 289.5 248 L 288.5 246 Z " /><path fill="rgb(234,234,234)" stroke="rgb(234,234,234)" stroke-width="1" opacity="0.08627450980392157" d="M 296.5 248 L 333.5 276 L 335.5 276 L 337 276.5 L 332.5 277 L 329.5 275 L 328 275.5 Q 327.3 273.3 329.5 274 L 329.5 273 L 319.5 266 L 317 266 L 316.5 268 L 316 266.5 L 317 264 L 314.5 263 Q 313.3 265.3 312 262.5 L 311.5 261 L 310 261.5 Q 312.3 260.3 309.5 259 L 308 259.5 L 308.5 261 L 307 258.5 L 307.5 257 L 301.5 254 L 301.5 255 L 303 255.5 L 301.5 256 Q 298.7 254.8 301 253.5 Q 301.8 251.3 299.5 252 L 296 250 L 296.5 248 Z " /><path fill="rgb(234,234,234)" stroke="rgb(234,234,234)" stroke-width="1" opacity="0.08627450980392157" d="M 381.5 248 L 387 250.5 L 386.5 252 L 388.5 252 L 392.5 256 L 396 256.5 L 395.5 258 L 401 260 L 401 262 Q 404 261 403 264 L 406 264 L 406 266 Q 408.7 264.9 408 267.5 L 405.5 266 L 382.5 250 L 381.5 248 Z " /><path fill="rgb(234,234,234)" stroke="rgb(234,234,234)" stroke-width="1" opacity="0.08627450980392157" d="M 256.5 252 L 263 252.5 L 260 254.5 L 262.5 256 L 264 255.5 L 264.5 257 L 266.5 257 Q 268.8 256.3 268 258.5 Q 265.8 259.8 268.5 261 L 272 262.5 Q 271.3 264.8 273.5 264 L 275.5 264 L 278.5 266 L 280 265.5 L 279 267.5 L 282 268.5 L 281.5 270 Q 284 273 290 272.5 L 288 273.5 L 290.5 275 L 292 274.5 Q 291.3 277.1 294 276 L 294 278.5 L 296 278.5 L 295.5 280 L 300 281.5 L 299.5 284 L 258.5 255 L 256.5 252 Z " /><path fill="rgb(234,234,234)" stroke="rgb(234,234,234)" stroke-width="1" opacity="0.08627450980392157" d="M 164.5 253 L 207.5 311 L 213 312.5 L 208.5 313 Q 207.4 310.3 204 311 L 203.5 307 L 201.5 308 L 200.5 306 L 202 306.5 Q 202.8 304.3 200.5 305 L 198 303.5 L 200 302.5 L 197 300.5 L 196.5 302 L 196 300.5 L 197 298.5 L 194 293 Q 191.3 294.1 192 291.5 L 190 291.5 Q 191 287.8 188 289 L 188 285.5 L 185.5 287 L 184 285.5 L 184 280 L 181.5 280 Q 178.8 278.8 181 277.5 L 179.5 275 L 176 275.5 L 178 272.5 L 176 272.5 L 177 271.5 L 174 268.5 L 173.5 266 L 172 266.5 Q 174.8 264.7 170.5 263 L 169 263.5 Q 169.6 258.4 166.5 257 L 166 258.5 L 166.5 260 L 164 259.5 L 165 254.5 L 164.5 253 Z " /><path fill="rgb(234,234,234)" stroke="rgb(234,234,234)" stroke-width="1" opacity="0.08627450980392157" d="M 304.5 258 L 305.5 260 Q 302.7 260.7 304.5 258 Z " /><path fill="rgb(234,234,234)" stroke="rgb(234,234,234)" stroke-width="1" opacity="0.08627450980392157" d="M 429.5 265 L 451 282.5 L 449 283.5 L 448.5 281 L 446.5 281 L 443.5 279 L 441.5 280 Q 438.8 278.8 441 277.5 L 439.5 274 Q 437.7 277.8 436 274.5 L 437 272 Q 431.2 271.6 428 267.5 L 429.5 265 Z " /><path fill="rgb(234,234,234)" stroke="rgb(234,234,234)" stroke-width="1" opacity="0.08627450980392157" d="M 490 266 Q 493 265 492 268 Q 489 269 490 266 Z " /><path fill="rgb(234,234,234)" stroke="rgb(234,234,234)" stroke-width="1" opacity="0.08627450980392157" d="M 409.5 268 L 411.5 268 L 414 268.5 L 412 269.5 L 417.5 273 L 419 272.5 L 418 275 L 424 276 L 423.5 280 L 422.5 277 L 421 279.5 Q 423.2 280.8 420.5 282 Q 416.3 281.3 415.5 284 L 410.5 284 L 407 282.5 Q 408.8 279.3 410.5 283 L 416 282.5 L 412 281.5 L 420 281 L 421 277.5 L 411.5 271 L 409.5 268 Z " /><path fill="rgb(234,234,234)" stroke="rgb(234,234,234)" stroke-width="1" opacity="0.08627450980392157" d="M 172.5 269 L 173.5 271 Q 170.7 271.7 172.5 269 Z " /><path fill="rgb(234,234,234)" stroke="rgb(234,234,234)" stroke-width="1" opacity="0.08627450980392157" d="M 484 270 L 487 271.5 L 484 272 L 484 270 Z " /><path fill="rgb(234,234,234)" stroke="rgb(234,234,234)" stroke-width="1" opacity="0.08627450980392157" d="M 344 276 L 349 276.5 L 344.5 278 L 344 276 Z " /><path fill="rgb(234,234,234)" stroke="rgb(234,234,234)" stroke-width="1" opacity="0.08627450980392157" d="M 355.5 277 Q 362.9 276.1 367 278.5 Q 366.3 280.8 362.5 280 L 362.5 278 L 356.5 279 L 355 278.5 Q 355.7 281.1 353 280 Q 351.9 277.3 354.5 278 L 355.5 277 Z " /><path fill="rgb(234,234,234)" stroke="rgb(234,234,234)" stroke-width="1" opacity="0.08627450980392157" d="M 347.5 278 L 350 278.5 L 347.5 279 L 347.5 278 Z " /><path fill="rgb(234,234,234)" stroke="rgb(234,234,234)" stroke-width="1" opacity="0.08627450980392157" d="M 368.5 278 L 370.5 278 L 377.5 278 L 378 280 L 372.5 279 L 369.5 280 L 368.5 278 Z " /><path fill="rgb(234,234,234)" stroke="rgb(234,234,234)" stroke-width="1" opacity="0.08627450980392157" d="M 386.5 279 L 392 279.5 L 386.5 280 L 386.5 279 Z " /><path fill="rgb(234,234,234)" stroke="rgb(234,234,234)" stroke-width="1" opacity="0.08627450980392157" d="M 400 280 L 407 280.5 L 404.5 282 L 401.5 281 L 402 282.5 L 401.5 284 L 400 280 Z " /><path fill="rgb(234,234,234)" stroke="rgb(234,234,234)" stroke-width="1" opacity="0.08627450980392157" d="M 452.5 283 L 460 289.5 L 459 292 L 456 290.5 Q 458.3 289.2 455.5 288 L 452 287.5 L 454 286.5 L 452 286 L 452.5 283 Z " /><path fill="rgb(234,234,234)" stroke="rgb(234,234,234)" stroke-width="1" opacity="0.08627450980392157" d="M 301.5 284 L 307.5 285 L 309.5 285 L 314 286 L 314.5 284 L 316.5 285 L 320 284.5 Q 321.8 290.2 315.5 288 L 315.5 287 L 318 286.5 L 314.5 286 L 309 287 L 308.5 285 L 304.5 286 L 301.5 285 L 301.5 284 Z " /><path fill="rgb(234,234,234)" stroke="rgb(234,234,234)" stroke-width="1" opacity="0.08627450980392157" d="M 321.5 288 L 329.5 289 L 331.5 289 L 333.5 290 L 336 289 Q 337.3 292.3 332.5 291 L 326.5 289 L 321.5 289 L 321.5 288 Z " /><path fill="rgb(234,234,234)" stroke="rgb(234,234,234)" stroke-width="1" opacity="0.08627450980392157" d="M 337.5 288 L 340 289.5 L 338.5 290 L 337.5 288 Z " /><path fill="rgb(234,234,234)" stroke="rgb(234,234,234)" stroke-width="1" opacity="0.08627450980392157" d="M 337.5 291 L 340.5 293 L 342.5 293 L 344 293.5 L 342.5 294 L 341 293.5 L 342.5 296 L 344 295.5 Q 341.8 296.8 344.5 298 L 345 296 L 348 297.5 L 347 301 L 349.5 300 L 352 300.5 L 350 303.5 L 356 305.5 L 355 307.5 L 356 310 L 359 310.5 L 358.5 312 L 363 313 L 362 315.5 L 365.5 317 L 367.5 316 L 367.5 317 Q 364.9 316.2 366 319.5 L 370 322 L 371.5 325 L 374.5 324 L 376 328 L 378 328.5 L 376 329.5 L 379 331.5 L 379.5 330 Q 381.8 334.2 384 332.5 L 383.5 336 Q 385.8 335.3 385 337.5 L 386 340 Q 388.7 338.9 388 341.5 L 389 341.5 L 389.5 340 L 392 340.5 L 391.5 343 L 390 343.5 L 393 344.5 L 392 346.5 L 394.5 345 L 396 345.5 L 394 346 L 395.5 350 L 396 348 L 400 349.5 L 398.5 349 L 397 349.5 Q 399.8 350.6 399 354 L 402.5 356 L 404 355.5 Q 401.7 356.8 404.5 358 L 407.5 356 L 407 357.5 L 406 361 L 408 361 Q 406.9 363.7 409.5 363 L 414.5 369 L 418 368 L 417 372 Q 421.1 370.3 420 374.5 Q 422 378.2 424 376.5 L 426.5 381 Q 428.8 380.3 428 382.5 L 435 388 L 436 390.5 L 384 339.5 L 337.5 291 Z M 373 325 L 373 326 Q 375 325 374 328 L 375 328 Q 376 324 373 325 Z M 382 333 Q 380 336 383 335 L 382 333 Z " /><path fill="rgb(234,234,234)" stroke="rgb(234,234,234)" stroke-width="1" opacity="0.08627450980392157" d="M 214.5 313 L 216 313.5 L 214.5 316 L 212 314.5 L 214.5 313 Z " /><path fill="rgb(234,234,234)" stroke="rgb(234,234,234)" stroke-width="1" opacity="0.08627450980392157" d="M 217 314 L 219 314.5 L 217 315.5 L 217 314 Z " /><path fill="rgb(234,234,234)" stroke="rgb(234,234,234)" stroke-width="1" opacity="0.08627450980392157" d="M 224.5 316 L 225 318.5 L 224 318.5 L 224.5 316 Z " /><path fill="rgb(234,234,234)" stroke="rgb(234,234,234)" stroke-width="1" opacity="0.08627450980392157" d="M 227.5 317 L 231 318 Q 232.1 320.7 229.5 320 L 227 319 L 227.5 317 Z " /><path fill="rgb(234,234,234)" stroke="rgb(234,234,234)" stroke-width="1" opacity="0.08627450980392157" d="M 236.5 320 L 247 323.5 L 244.5 324 L 240.5 324 L 238.5 322 L 236.5 320 Z " /><path fill="rgb(234,234,234)" stroke="rgb(234,234,234)" stroke-width="1" opacity="0.08627450980392157" d="M 248.5 324 Q 250.8 323.3 250 325.5 L 251.5 325 L 256 326 L 255.5 328 L 253.5 328 L 251.5 327 L 250 327.5 L 248.5 324 Z " /><path fill="rgb(234,234,234)" stroke="rgb(234,234,234)" stroke-width="1" opacity="0.08627450980392157" d="M 118.5 328 L 116.5 331 L 118.5 328 Z " /><path fill="rgb(234,234,234)" stroke="rgb(234,234,234)" stroke-width="1" opacity="0.08627450980392157" d="M 130.5 328 L 132 330.5 Q 129.8 331.8 132.5 333 L 135 332 L 136 335.5 Q 133.7 336.8 136.5 338 L 137.5 336 L 138 338 Q 141 337 140 340 L 142.5 340 L 143.5 342 L 142 341.5 L 143 343.5 L 137.5 339 L 132 334.5 L 130 331.5 L 131 329.5 L 130.5 328 Z " /><path fill="rgb(234,234,234)" stroke="rgb(234,234,234)" stroke-width="1" opacity="0.08627450980392157" d="M 260 328 L 266.5 330 L 275 337.5 L 275.5 339 L 276.5 338 L 280.5 342 L 285 345.5 L 283.5 346 L 280 343.5 L 279.5 342 L 278.5 344 L 277.5 342 L 276.5 344 L 276 342.5 L 277.5 340 Q 272.7 341.7 274 337.5 L 267.5 332 L 265 332 L 264.5 330 L 260 331.5 L 260 328 Z " /><path fill="rgb(234,234,234)" stroke="rgb(234,234,234)" stroke-width="1" opacity="0.08627450980392157" d="M 114.5 332 L 112.5 335 L 114.5 332 Z " /><path fill="rgb(234,234,234)" stroke="rgb(234,234,234)" stroke-width="1" opacity="0.08627450980392157" d="M 152.5 332 Q 156.4 335.3 164 334 Q 162.7 330.7 167.5 332 L 168.5 333 L 179.5 333 L 180.5 332 L 204 332 L 204.5 334 L 232 334 L 232.5 332 L 243 332 L 242 334.5 L 246.5 338 L 248 337.5 Q 245.7 338.8 248.5 340 L 256 340.5 L 255.5 343 L 254 343.5 L 264 350 L 263.5 352 L 241.5 335 L 152 335 L 152.5 332 Z M 237 333 L 237 334 L 240 334 L 237 333 Z M 252 341 Q 251 344 254 343 Q 255 340 252 341 Z " /><path fill="rgb(234,234,234)" stroke="rgb(234,234,234)" stroke-width="1" opacity="0.08627450980392157" d="M 104 336 L 106 336.5 L 104 337.5 L 104 336 Z " /><path fill="rgb(234,234,234)" stroke="rgb(234,234,234)" stroke-width="1" opacity="0.08627450980392157" d="M 110.5 336 L 85.5 362 L 76.5 370 L 76 368 L 78 367.5 L 76 364.5 L 78 365.5 L 78.5 367 Q 79 361.5 83.5 360 L 85 360.5 L 86.5 358 L 92 353.5 L 91.5 352 Q 95.5 352.5 96 349.5 L 96 347 Q 100.1 348.7 99 344.5 L 101 341 L 104.5 340 L 106 340.5 L 107.5 338 L 110.5 336 Z M 102 343 L 100 346 L 103 344 L 102 343 Z " /><path fill="rgb(234,234,234)" stroke="rgb(234,234,234)" stroke-width="1" opacity="0.08627450980392157" d="M 148.5 336 Q 150.8 335.3 150 337.5 L 149.5 340 L 148 338.5 L 148.5 336 Z " /><path fill="rgb(234,234,234)" stroke="rgb(234,234,234)" stroke-width="1" opacity="0.08627450980392157" d="M 151.5 336 L 152 339.5 L 151 339.5 L 151.5 336 Z " /><path fill="rgb(234,234,234)" stroke="rgb(234,234,234)" stroke-width="1" opacity="0.08627450980392157" d="M 152.5 341 L 166 350.5 L 164 351.5 L 168 354.5 L 166.5 355 L 161 350.5 L 162 348 L 157.5 347 L 156 347.5 L 157 345.5 L 152.5 341 Z " /><path fill="rgb(234,234,234)" stroke="rgb(234,234,234)" stroke-width="1" opacity="0.08627450980392157" d="M 96 344 Q 99 343 98 346 Q 95 347 96 344 Z " /><path fill="rgb(234,234,234)" stroke="rgb(234,234,234)" stroke-width="1" opacity="0.08627450980392157" d="M 144.5 344 L 147 345.5 L 148.5 348 Q 153.9 346.1 153 349.5 Q 150.3 351.2 154.5 353 L 156.5 353 Q 159.1 352.2 158 355.5 L 159.5 355 L 161 355 Q 159.5 358.7 162.5 358 L 164.5 361 L 166 360.5 L 165.5 362 Q 167.8 362.8 167 360.5 L 168 360.5 L 167 362.5 L 172 365.5 Q 169.8 366.8 172.5 368 L 175.5 369 L 177 368.5 Q 174.5 370 178 371.5 L 178.5 373 L 179.5 370 L 180.5 373 L 182.5 372 L 182 373.5 L 182.5 375 L 184 374.5 Q 183.1 377.5 187.5 376 L 187.5 377 L 184 377.5 L 188 380.5 L 186.5 380 L 148.5 349 L 144.5 344 Z " /><path fill="rgb(234,234,234)" stroke="rgb(234,234,234)" stroke-width="1" opacity="0.08627450980392157" d="M 258.5 344 Q 260.8 343.3 260 345.5 L 258.5 344 Z " /><path fill="rgb(234,234,234)" stroke="rgb(234,234,234)" stroke-width="1" opacity="0.08627450980392157" d="M 286.5 346 L 328 379.5 L 326.5 379 L 323.5 377 L 318.5 374 L 316 375.5 L 316 373.5 Q 317.5 369.1 314.5 370 L 314.5 372 L 312 371.5 L 312 369.5 Q 313.1 366.2 310.5 367 L 299 359.5 L 300 358.5 L 296.5 355 L 295 355.5 L 295.5 354 L 292 353.5 L 292.5 352 L 286.5 346 Z " /><path fill="rgb(234,234,234)" stroke="rgb(234,234,234)" stroke-width="1" opacity="0.08627450980392157" d="M 154.5 348 L 155.5 350 Q 152.7 350.7 154.5 348 Z " /><path fill="rgb(234,234,234)" stroke="rgb(234,234,234)" stroke-width="1" opacity="0.08627450980392157" d="M 167.5 351 L 184 363.5 L 182.5 363 L 180.5 364 L 180.5 362 L 175 359.5 Q 176.3 355.8 172.5 357 L 167.5 351 Z " /><path fill="rgb(234,234,234)" stroke="rgb(234,234,234)" stroke-width="1" opacity="0.08627450980392157" d="M 265.5 352 L 267.5 352 L 270 354.5 L 270 356 Q 273.7 354.5 273 357.5 L 276 358.5 Q 275.3 360.8 277.5 360 L 280 363.5 L 276.5 361 L 267.5 355 L 265.5 352 Z " /><path fill="rgb(234,234,234)" stroke="rgb(234,234,234)" stroke-width="1" opacity="0.08627450980392157" d="M 403.5 352 L 402.5 354 L 403.5 352 Z " /><path fill="rgb(234,234,234)" stroke="rgb(234,234,234)" stroke-width="1" opacity="0.08627450980392157" d="M 172 358 L 174 358.5 L 172 359.5 L 172 358 Z " /><path fill="rgb(234,234,234)" stroke="rgb(234,234,234)" stroke-width="1" opacity="0.08627450980392157" d="M 185.5 364 L 230 396.5 L 230.5 398 Q 232 395.5 233.5 399 L 255 414.5 L 254.5 416 L 249.5 411 L 248 411.5 L 246.5 409 Q 243.9 408.2 245 411.5 L 244 411.5 L 245 408.5 L 243.5 407 L 240 407.5 Q 239.3 405.3 241.5 406 L 241.5 405 L 237.5 403 L 234.5 404 L 232 402.5 L 233 400.5 L 229.5 398 L 228 398.5 L 229 396.5 L 226.5 395 L 224.5 396 L 219 391.5 L 217.5 388 L 214 386.5 L 213.5 385 L 212 385.5 L 211.5 384 L 210 384.5 L 210.5 383 L 208.5 384 L 208 381 L 203.5 378 L 201 379.5 L 201.5 378 L 200 377.5 L 200.5 376 L 197.5 374 L 196 374.5 Q 197.1 371.2 194.5 372 L 190 370.5 Q 190.7 373.1 188 372 Q 186.9 369.3 189.5 370 L 189 368.5 Q 189.8 366.3 187.5 367 L 185.5 367 L 184 366.5 L 186 365.5 L 185.5 364 Z " /><path fill="rgb(234,234,234)" stroke="rgb(234,234,234)" stroke-width="1" opacity="0.08627450980392157" d="M 281.5 364 L 284 364.5 Q 283.2 367.5 287 366 L 287.5 364 L 288 367.5 L 287.5 370 L 281.5 364 Z " /><path fill="rgb(234,234,234)" stroke="rgb(234,234,234)" stroke-width="1" opacity="0.08627450980392157" d="M 415.5 364 L 415.5 367 Q 413.3 367.8 414 365.5 L 415.5 364 Z " /><path fill="rgb(234,234,234)" stroke="rgb(234,234,234)" stroke-width="1" opacity="0.08627450980392157" d="M 72 368 L 74 368.5 L 73.5 371 Q 70.5 371.7 72 368 Z " /><path fill="rgb(234,234,234)" stroke="rgb(234,234,234)" stroke-width="1" opacity="0.08627450980392157" d="M 289.5 368 L 291.5 372 L 293.5 373 L 295 372.5 L 296 375.5 L 292.5 373 L 289 370.5 L 289.5 368 Z " /><path fill="rgb(234,234,234)" stroke="rgb(234,234,234)" stroke-width="1" opacity="0.08627450980392157" d="M 68.5 372 L 71.5 373 L 73.5 372 L 70 376.5 L 71 379.5 L 68 379.5 L 68 375.5 L 69.5 374 L 71 373.5 Q 67.7 373.6 68.5 372 Z " /><path fill="rgb(234,234,234)" stroke="rgb(234,234,234)" stroke-width="1" opacity="0.08627450980392157" d="M 297.5 376 Q 300.8 374.9 300 377.5 L 304 379.5 Q 302.3 382.8 300.5 379 L 297.5 376 Z " /><path fill="rgb(234,234,234)" stroke="rgb(234,234,234)" stroke-width="1" opacity="0.08627450980392157" d="M 72.5 380 L 78 384.5 L 76.5 388 L 77 386.5 Q 78.3 382.8 74.5 384 L 72 383.5 L 73 381.5 L 72.5 380 Z " /><path fill="rgb(234,234,234)" stroke="rgb(234,234,234)" stroke-width="1" opacity="0.08627450980392157" d="M 305.5 380 L 308 380.5 L 306.5 383 L 313 385.5 L 314.5 388 L 317.5 390 L 320 388.5 Q 320.7 391.1 318 390 L 318 392 L 329 397.5 L 330.5 401 L 332 400.5 L 333.5 403 L 337 404 L 338.5 407 L 340 406.5 Q 339.3 408.8 341.5 408 L 344.5 409 Q 347.8 407.9 347 410.5 L 352.5 417 L 358 419.5 L 358.5 421 L 361.5 420 L 361.5 421 L 359 421.5 L 363 424 Q 361.9 421.3 364.5 422 L 366 424.5 L 365 426.5 L 366.5 426 L 368 426.5 L 367.5 428 Q 369.8 428.8 369 426.5 L 369.5 425 L 367 423.5 L 364 418.5 L 366 417.5 L 364 416.5 L 366.5 416 L 369.5 417 L 372.5 416 L 375.5 418 L 376.5 416 L 377 419 L 369.5 418 Q 365.3 419.7 368 421.5 L 372 426.5 L 371 428.5 Q 373 426.8 375 430.5 L 374 432.5 Q 376 430.8 378 434.5 L 380 437.5 L 377.5 436 L 347 413.5 L 346.5 412 L 345.5 413 L 342.5 410 L 312 387.5 L 311.5 386 L 310.5 387 L 307.5 384 L 304 381.5 L 305.5 380 Z M 365 423 L 363 425 L 365 425 L 365 423 Z " /><path fill="rgb(234,234,234)" stroke="rgb(234,234,234)" stroke-width="1" opacity="0.08627450980392157" d="M 329.5 380 L 347.5 395 L 355 396 L 355.5 398 L 359 397 L 359.5 399 L 363.5 398 L 368 399.5 L 363.5 400 L 361.5 399 L 357.5 400 L 357.5 398 L 355.5 399 L 353.5 398 L 353.5 400 L 352.5 397 Q 346.3 397.7 344 394.5 Q 346.3 393.3 343.5 392 L 338.5 389 L 336.5 392 L 336 390.5 L 337 387.5 L 335.5 386 L 332.5 388 L 332 385.5 L 329.5 380 Z " /><path fill="rgb(234,234,234)" stroke="rgb(234,234,234)" stroke-width="1" opacity="0.08627450980392157" d="M 189.5 382 L 192.5 384 L 195 385.5 L 195.5 384 L 199.5 390 L 202 391.5 L 202.5 393 L 203.5 392 L 206 393.5 L 206.5 392 L 207 393.5 L 207 395.5 L 208.5 398 Q 210.8 398.8 210 396.5 L 211 396.5 L 212 398.5 L 211.5 400 Q 214.1 399.3 213 402 L 215.5 402 L 215.5 404 L 217.5 405 L 219 404.5 L 223.5 410 Q 224.8 407.8 226 410.5 L 227.5 414 L 231 413.5 L 227.5 415 L 222.5 410 L 191.5 385 L 189.5 382 Z " /><path fill="rgb(234,234,234)" stroke="rgb(234,234,234)" stroke-width="1" opacity="0.08627450980392157" d="M 79.5 385 L 85 389.5 L 84.5 391 L 83 390.5 Q 83.7 393.1 81 392 L 79.5 385 Z M 82 388 Q 80 391 83 390 L 82 388 Z " /><path fill="rgb(234,234,234)" stroke="rgb(234,234,234)" stroke-width="1" opacity="0.08627450980392157" d="M 202.5 389 L 203.5 391 L 202.5 389 Z " /><path fill="rgb(234,234,234)" stroke="rgb(234,234,234)" stroke-width="1" opacity="0.08627450980392157" d="M 86.5 390 L 116 411.5 L 114 412 L 113.5 410 L 112 410.5 L 111.5 409 L 110 409.5 L 109.5 408 L 107.5 408 L 105.5 407 L 104 407.5 L 105 404 L 101 403.5 Q 103.3 402.3 100.5 401 Q 95.5 402 94.5 399 Q 93.3 401.3 92 398.5 L 92.5 397 L 93.5 399 Q 96.5 397.5 93.5 396 L 91.5 395 L 88.5 396 L 88 393.5 L 86.5 390 Z " /><path fill="rgb(234,234,234)" stroke="rgb(234,234,234)" stroke-width="1" opacity="0.08627450980392157" d="M 437.5 392 Q 440.8 390.9 440 393.5 L 442.5 397 L 444 396.5 L 445 400 Q 447.7 398.9 447 401.5 L 453 405.5 L 454 409 Q 456.7 407.9 456 410.5 Q 458.5 415.3 461 413.5 Q 458.8 414.8 461.5 416 L 463 413.5 L 462.5 412 Q 465.3 413.3 463 414.5 L 462 416.5 L 464 420 Q 461 421.3 462 417.5 L 461 417.5 L 461 420 L 454.5 420 L 452.5 419 L 446.5 419 L 441.5 420 L 439.5 416 L 438 415.5 L 439.5 415 L 454.5 419 L 460 419 L 460 415 L 458.5 415 L 441 397.5 L 437.5 392 Z M 443 417 L 443 418 L 445 418 L 443 417 Z " /><path fill="rgb(234,234,234)" stroke="rgb(234,234,234)" stroke-width="1" opacity="0.08627450980392157" d="M 333.5 400 L 336 400.5 Q 336.8 402.8 334.5 402 L 333.5 400 Z " /><path fill="rgb(234,234,234)" stroke="rgb(234,234,234)" stroke-width="1" opacity="0.08627450980392157" d="M 369.5 400 L 377 401.5 Q 375 406 373 402.5 L 372.5 401 L 369.5 404 L 368 402.5 L 371 401.5 L 369.5 400 Z " /><path fill="rgb(234,234,234)" stroke="rgb(234,234,234)" stroke-width="1" opacity="0.08627450980392157" d="M 378.5 402 Q 382.3 401.3 383 403.5 L 379.5 403 L 378.5 402 Z " /><path fill="rgb(234,234,234)" stroke="rgb(234,234,234)" stroke-width="1" opacity="0.08627450980392157" d="M 388.5 404 L 391 404.5 L 388.5 405 L 388.5 404 Z " /><path fill="rgb(234,234,234)" stroke="rgb(234,234,234)" stroke-width="1" opacity="0.08627450980392157" d="M 393.5 405 L 395 405.5 L 394 408 L 389.5 407 L 388 407.5 Q 387.1 404.1 392.5 406 L 393.5 405 Z " /><path fill="rgb(234,234,234)" stroke="rgb(234,234,234)" stroke-width="1" opacity="0.08627450980392157" d="M 398 406 Q 401 405 400 408 Q 397 409 398 406 Z " /><path fill="rgb(234,234,234)" stroke="rgb(234,234,234)" stroke-width="1" opacity="0.08627450980392157" d="M 401.5 407 L 404 407.5 L 401.5 408 L 401.5 407 Z " /><path fill="rgb(234,234,234)" stroke="rgb(234,234,234)" stroke-width="1" opacity="0.08627450980392157" d="M 405 408 L 409 408.5 L 406 409.5 L 407 412 L 404 410.5 L 405 408 Z " /><path fill="rgb(234,234,234)" stroke="rgb(234,234,234)" stroke-width="1" opacity="0.08627450980392157" d="M 410.5 409 L 417.5 410 L 419 411.5 L 417.5 411 Q 411 412 410.5 409 Z " /><path fill="rgb(234,234,234)" stroke="rgb(234,234,234)" stroke-width="1" opacity="0.08627450980392157" d="M 408.5 410 L 409.5 412 L 408.5 410 Z " /><path fill="rgb(234,234,234)" stroke="rgb(234,234,234)" stroke-width="1" opacity="0.08627450980392157" d="M 117.5 412 L 123 416.5 Q 123.8 418.8 121.5 418 L 120.5 415 L 118.5 416 L 118 414 L 116 413.5 L 117.5 412 Z " /><path fill="rgb(234,234,234)" stroke="rgb(234,234,234)" stroke-width="1" opacity="0.08627450980392157" d="M 350.5 412 L 351.5 414 L 350.5 412 Z " /><path fill="rgb(234,234,234)" stroke="rgb(234,234,234)" stroke-width="1" opacity="0.08627450980392157" d="M 425.5 412 L 427 412.5 L 425 413.5 Q 427.3 414.8 424.5 416 L 424 413.5 L 425.5 412 Z " /><path fill="rgb(234,234,234)" stroke="rgb(234,234,234)" stroke-width="1" opacity="0.08627450980392157" d="M 429.5 413 Q 432.5 412.2 431 416 Q 427.3 417.5 428 414.5 L 429.5 413 Z " /><path fill="rgb(234,234,234)" stroke="rgb(234,234,234)" stroke-width="1" opacity="0.08627450980392157" d="M 432.5 414 L 436 414.5 L 432.5 415 L 432.5 414 Z " /><path fill="rgb(234,234,234)" stroke="rgb(234,234,234)" stroke-width="1" opacity="0.08627450980392157" d="M 256.5 415 L 261 418.5 L 260.5 420 L 258 419.5 L 259 418.5 L 256.5 415 Z " /><path fill="rgb(234,234,234)" stroke="rgb(234,234,234)" stroke-width="1" opacity="0.08627450980392157" d="M 229.5 416 Q 231.8 415.3 231 417.5 L 233 422 Q 235.7 420.9 235 423.5 L 232 421.5 L 229.5 416 Z " /><path fill="rgb(234,234,234)" stroke="rgb(234,234,234)" stroke-width="1" opacity="0.08627450980392157" d="M 378.5 416 L 380.5 416 L 384.5 420 L 389.5 421 L 395 420 L 395.5 422 L 397 421.5 L 393.5 423 L 383.5 421 L 381.5 419 L 379.5 420 L 379.5 419 L 381 418.5 L 378.5 416 Z " /><path fill="rgb(234,234,234)" stroke="rgb(234,234,234)" stroke-width="1" opacity="0.08627450980392157" d="M 124.5 417 L 144 431.5 L 142.5 432 L 140 431.5 L 140.5 430 L 135 427.5 L 135.5 426 L 133.5 427 L 131.5 423 L 130 423.5 L 127.5 420 L 124.5 417 Z " /><path fill="rgb(234,234,234)" stroke="rgb(234,234,234)" stroke-width="1" opacity="0.08627450980392157" d="M 268 420 L 280.5 422 L 283.5 421 L 294 425.5 L 292.5 426 Q 291.3 423.8 290 426.5 L 292 427.5 L 290.5 428 L 288 427.5 Q 287.3 425.3 289.5 426 L 288.5 424 L 286.5 423 L 283.5 424 L 279.5 422 L 270.5 421 L 268 422 L 268 420 Z " /><path fill="rgb(234,234,234)" stroke="rgb(234,234,234)" stroke-width="1" opacity="0.08627450980392157" d="M 271.5 422 L 274 423.5 L 272.5 424 L 271.5 422 Z " /><path fill="rgb(234,234,234)" stroke="rgb(234,234,234)" stroke-width="1" opacity="0.08627450980392157" d="M 398.5 423 L 401 423.5 L 398.5 424 L 398.5 423 Z " /><path fill="rgb(234,234,234)" stroke="rgb(234,234,234)" stroke-width="1" opacity="0.08627450980392157" d="M 239.5 424 L 240 426 L 238 425.5 L 239.5 424 Z " /><path fill="rgb(234,234,234)" stroke="rgb(234,234,234)" stroke-width="1" opacity="0.08627450980392157" d="M 403.5 424 L 406 424.5 L 403.5 425 L 403.5 424 Z " /><path fill="rgb(234,234,234)" stroke="rgb(234,234,234)" stroke-width="1" opacity="0.08627450980392157" d="M 409.5 424 L 412.5 425 L 415.5 424 L 415.5 426 L 421 427.5 L 418.5 428 L 408 425.5 L 409.5 424 Z " /><path fill="rgb(234,234,234)" stroke="rgb(234,234,234)" stroke-width="1" opacity="0.08627450980392157" d="M 235.5 425 Q 237.8 424.3 237 426.5 L 235.5 425 Z " /><path fill="rgb(234,234,234)" stroke="rgb(234,234,234)" stroke-width="1" opacity="0.08627450980392157" d="M 295.5 426 L 297 426.5 L 294.5 428 L 295.5 426 Z " /><path fill="rgb(234,234,234)" stroke="rgb(234,234,234)" stroke-width="1" opacity="0.08627450980392157" d="M 298.5 427 L 317 434.5 L 315.5 435 L 314 434.5 L 313.5 436 L 309.5 436 Q 307.3 436.8 308 434.5 Q 310.8 432.7 306.5 431 L 303.5 432 L 303.5 430 Q 297.8 429.5 298.5 427 Z M 311 433 L 312 435 Q 313 432 311 433 Z " /><path fill="rgb(234,234,234)" stroke="rgb(234,234,234)" stroke-width="1" opacity="0.08627450980392157" d="M 237.5 428 L 240 429.5 L 238.5 430 L 237.5 428 Z " /><path fill="rgb(234,234,234)" stroke="rgb(234,234,234)" stroke-width="1" opacity="0.08627450980392157" d="M 423.5 428 L 431.5 429 L 433 428.5 Q 432.3 430.8 434.5 430 Q 436.3 426.3 438 429.5 Q 437.3 431.8 433.5 431 L 423.5 429 L 423.5 428 Z " /><path fill="rgb(234,234,234)" stroke="rgb(234,234,234)" stroke-width="1" opacity="0.08627450980392157" d="M 439.5 428 L 443.5 432 L 449.5 433 L 453 432 Q 451.9 434.7 454.5 434 L 457 432.5 L 455.5 435 L 443.5 433 L 441.5 431 L 438.5 432 L 438.5 431 L 441 430.5 L 439.5 428 Z " /><path fill="rgb(234,234,234)" stroke="rgb(234,234,234)" stroke-width="1" opacity="0.08627450980392157" d="M 239.5 431 Q 241.3 434.1 243 432.5 L 242 434.5 L 244 434.5 L 244 436.5 L 245 438.5 L 243 437.5 L 239.5 431 Z " /><path fill="rgb(234,234,234)" stroke="rgb(234,234,234)" stroke-width="1" opacity="0.08627450980392157" d="M 145.5 432 L 146.5 435 L 148.5 434 L 151.5 438 Q 153 435.5 154.5 439 L 161 443.5 L 161.5 445 Q 163 442.5 164.5 446 L 167 447.5 L 165.5 447 L 163.5 448 L 159.5 443 L 157.5 444 Q 159.2 442 155.5 440 L 153.5 439 Q 152 441.5 150.5 438 L 144 434.5 L 145.5 432 Z " /><path fill="rgb(234,234,234)" stroke="rgb(234,234,234)" stroke-width="1" opacity="0.08627450980392157" d="M 458.5 434 L 461 435.5 L 458 436 L 458.5 434 Z " /><path fill="rgb(234,234,234)" stroke="rgb(234,234,234)" stroke-width="1" opacity="0.08627450980392157" d="M 318.5 435 L 325 437.5 L 321.5 439 L 320 436 L 318.5 435 Z " /><path fill="rgb(234,234,234)" stroke="rgb(234,234,234)" stroke-width="1" opacity="0.08627450980392157" d="M 463.5 436 L 468.5 437 L 470.5 437 L 474.5 438 L 476 437.5 Q 476.9 440.5 472.5 439 Q 469.6 436.4 463.5 437 L 463.5 436 Z " /><path fill="rgb(234,234,234)" stroke="rgb(234,234,234)" stroke-width="1" opacity="0.08627450980392157" d="M 478.5 436 L 483 439.5 L 482 442.5 L 484 443 L 487.5 449 L 490.5 448 L 490.5 449 L 489 449.5 L 490.5 453 L 492 452.5 L 491.5 455 L 481 442.5 L 481 440 L 477 439.5 L 478.5 436 Z " /><path fill="rgb(234,234,234)" stroke="rgb(234,234,234)" stroke-width="1" opacity="0.08627450980392157" d="M 326.5 438 Q 328.8 437.3 328 439.5 L 325 439.5 L 326.5 438 Z " /><path fill="rgb(234,234,234)" stroke="rgb(234,234,234)" stroke-width="1" opacity="0.08627450980392157" d="M 246.5 439 L 248 439.5 L 246 440.5 L 248 444 L 250.5 445 L 252.5 444 L 255 444.5 L 254.5 446 L 256.5 447 L 259.5 445 L 259.5 446 L 258 446.5 L 260 447.5 L 255.5 448 Q 254 444.5 252.5 447 Q 247.5 447.5 247 443.5 L 245 440.5 L 246.5 439 Z " /><path fill="rgb(234,234,234)" stroke="rgb(234,234,234)" stroke-width="1" opacity="0.08627450980392157" d="M 334.5 441 L 338 442.5 L 336 443.5 L 338.5 444 L 340.5 444 L 348 446 L 348.5 448 L 350.5 447 L 363 452.5 L 360.5 454 L 360.5 452 Q 356.3 452.8 355.5 450 L 355 452 L 352 450.5 L 352.5 449 Q 347.2 449.8 345.5 447 L 344 447.5 L 344.5 446 L 340.5 448 L 341 446.5 Q 341.9 443.1 336.5 445 L 334.5 441 Z " /><path fill="rgb(234,234,234)" stroke="rgb(234,234,234)" stroke-width="1" opacity="0.08627450980392157" d="M 486.5 444 L 487.5 446 L 486.5 444 Z " /><path fill="rgb(234,234,234)" stroke="rgb(234,234,234)" stroke-width="1" opacity="0.08627450980392157" d="M 261.5 448 L 266 448.5 L 261.5 449 L 261.5 448 Z " /><path fill="rgb(234,234,234)" stroke="rgb(234,234,234)" stroke-width="1" opacity="0.08627450980392157" d="M 267.5 448 L 269.5 449 L 272 448 Q 273.3 451.3 268.5 450 L 267.5 448 Z " /><path fill="rgb(234,234,234)" stroke="rgb(234,234,234)" stroke-width="1" opacity="0.08627450980392157" d="M 273.5 448 L 274.5 450 L 276.5 450 L 280.5 448 L 284.5 452 L 292.5 453 Q 293.8 450.8 298.5 452 L 298.5 453 L 294 453.5 L 294.5 455 L 274.5 451 L 273 449.5 L 273.5 448 Z " /><path fill="rgb(234,234,234)" stroke="rgb(234,234,234)" stroke-width="1" opacity="0.08627450980392157" d="M 169.5 449 L 175 453.5 L 175.5 455 Q 177 452.5 178.5 456 L 182 458.5 L 179.5 457 L 177 457.5 L 180 459.5 L 178.5 460 L 176 459.5 Q 177.5 455.1 174.5 456 L 170.5 451 L 169 451.5 L 169.5 449 Z " /><path fill="rgb(234,234,234)" stroke="rgb(234,234,234)" stroke-width="1" opacity="0.08627450980392157" d="M 364 453 L 366 453.5 Q 365.5 456.5 361.5 456 L 361.5 455 Q 365.3 456 364 453 Z " /><path fill="rgb(234,234,234)" stroke="rgb(234,234,234)" stroke-width="1" opacity="0.08627450980392157" d="M 296.5 454 L 298.5 455 L 300 454.5 Q 300.8 457.1 297.5 456 L 296.5 454 Z " /><path fill="rgb(234,234,234)" stroke="rgb(234,234,234)" stroke-width="1" opacity="0.08627450980392157" d="M 367 454 L 386 461.5 L 383 462.5 L 382.5 464 L 380 462.5 L 382 461.5 L 367 455.5 L 367 454 Z " /><path fill="rgb(234,234,234)" stroke="rgb(234,234,234)" stroke-width="1" opacity="0.08627450980392157" d="M 301.5 456 L 304 456.5 L 301.5 457 L 301.5 456 Z " /><path fill="rgb(234,234,234)" stroke="rgb(234,234,234)" stroke-width="1" opacity="0.08627450980392157" d="M 305 456 L 315 459.5 L 312.5 460 L 305 458 L 305 456 Z " /><path fill="rgb(234,234,234)" stroke="rgb(234,234,234)" stroke-width="1" opacity="0.08627450980392157" d="M 314.5 456 L 315.5 458 L 313 457.5 L 314.5 456 Z " /><path fill="rgb(234,234,234)" stroke="rgb(234,234,234)" stroke-width="1" opacity="0.08627450980392157" d="M 492.5 456 L 494.5 457 L 496 456.5 L 495.5 458 Q 498.1 457.2 497 460.5 L 500 462.5 Q 497.7 463.7 500.5 465 L 502 464.5 Q 499.5 466 503 467.5 L 505 472 Q 507.7 470.9 507 473.5 L 509.5 477 L 511.5 476 L 512 478.5 L 514 483 Q 516.7 481.9 516 484.5 L 517.5 484 Q 520.8 482.9 520 485.5 L 518 485.5 L 518.5 488 L 520 487.5 L 521.5 491 L 524 492.5 L 523.5 494 Q 526.1 493.3 525 496 L 527 496 L 527 497.5 L 529.5 502 L 531 501.5 L 533.5 507 L 534.5 505 L 535 508.5 L 531 505.5 L 492.5 456 Z " /><path fill="rgb(234,234,234)" stroke="rgb(234,234,234)" stroke-width="1" opacity="0.08627450980392157" d="M 183.5 459 L 184.5 461 L 183.5 459 Z " /><path fill="rgb(234,234,234)" stroke="rgb(234,234,234)" stroke-width="1" opacity="0.08627450980392157" d="M 316.5 460 Q 322 459.5 324 462.5 L 322.5 462 L 316.5 461 L 316.5 460 Z " /><path fill="rgb(234,234,234)" stroke="rgb(234,234,234)" stroke-width="1" opacity="0.08627450980392157" d="M 326.5 460 L 328 464 L 325 462.5 L 327 461.5 L 326.5 460 Z " /><path fill="rgb(234,234,234)" stroke="rgb(234,234,234)" stroke-width="1" opacity="0.08627450980392157" d="M 186.5 461 L 213 480.5 L 213.5 483 L 214.5 481 L 223 487.5 L 221.5 488 L 219 487.5 Q 221.2 486.2 218.5 485 L 217 485.5 L 217.5 484 L 215.5 483 L 213.5 484 L 212 480 Q 208.3 481.5 209 478.5 L 207.5 479 L 204.5 480 L 204 478.5 Q 207.8 476.8 204.5 475 L 202.5 476 L 200.5 472 L 198.5 471 L 196 472 Q 197.8 467.5 192.5 469 Q 190.8 465.9 189 467.5 L 188 465.5 Q 190.8 463.7 186.5 462 L 185 462.5 L 186.5 461 Z " /><path fill="rgb(234,234,234)" stroke="rgb(234,234,234)" stroke-width="1" opacity="0.08627450980392157" d="M 387.5 462 L 391 463.5 L 389.5 464 L 387.5 463 L 386 463.5 L 387.5 462 Z " /><path fill="rgb(234,234,234)" stroke="rgb(234,234,234)" stroke-width="1" opacity="0.08627450980392157" d="M 329.5 464 L 332.5 465 L 334.5 464 Q 336 467.5 337.5 465 Q 342.5 464.5 343 468.5 L 341.5 469 L 329.5 465 L 329.5 464 Z " /><path fill="rgb(234,234,234)" stroke="rgb(234,234,234)" stroke-width="1" opacity="0.08627450980392157" d="M 392.5 464 L 404 468.5 L 402 469.5 L 404.5 471 L 405 469 L 409 470.5 L 407 471.5 L 406.5 470 L 404.5 472 L 402 471.5 L 401.5 470 L 400 470.5 Q 401.1 467.2 398.5 468 L 395.5 467 L 394 467.5 L 394.5 466 L 392.5 464 Z " /><path fill="rgb(234,234,234)" stroke="rgb(234,234,234)" stroke-width="1" opacity="0.08627450980392157" d="M 344 468 Q 347 467 346 470 L 348.5 470 L 350.5 469 L 350.5 470 L 349 470.5 L 354 472.5 L 352.5 473 L 344 470 L 344 468 Z " /><path fill="rgb(234,234,234)" stroke="rgb(234,234,234)" stroke-width="1" opacity="0.08627450980392157" d="M 410.5 471 L 414 472.5 L 412.5 473 L 410.5 471 Z " /><path fill="rgb(234,234,234)" stroke="rgb(234,234,234)" stroke-width="1" opacity="0.08627450980392157" d="M 355 472 L 357.5 473 L 359.5 472 L 363.5 477 Q 361.3 477.8 362 475.5 L 360 475.5 L 360.5 474 L 357.5 475 L 355 474 L 355 472 Z " /><path fill="rgb(234,234,234)" stroke="rgb(234,234,234)" stroke-width="1" opacity="0.08627450980392157" d="M 415.5 473 L 432 479 Q 433.3 482.3 428.5 481 L 425 479.5 L 425.5 478 Q 419 477.5 415.5 474 L 412.5 475 L 412.5 474 L 415.5 473 Z " /><path fill="rgb(234,234,234)" stroke="rgb(234,234,234)" stroke-width="1" opacity="0.08627450980392157" d="M 366.5 476 L 365.5 478 L 366.5 476 Z " /><path fill="rgb(234,234,234)" stroke="rgb(234,234,234)" stroke-width="1" opacity="0.08627450980392157" d="M 370.5 476 L 372 478.5 L 369.5 480 L 367 478.5 L 370 478 L 370.5 476 Z " /><path fill="rgb(234,234,234)" stroke="rgb(234,234,234)" stroke-width="1" opacity="0.08627450980392157" d="M 372.5 480 L 375.5 481 L 378.5 480 L 381 482.5 Q 380.2 485.1 383.5 484 L 389 486.5 Q 389.8 488.8 387.5 488 L 379 484 L 378.5 482 L 376.5 482 Q 371.7 482.1 372.5 480 Z " /><path fill="rgb(234,234,234)" stroke="rgb(234,234,234)" stroke-width="1" opacity="0.08627450980392157" d="M 433 480 L 437 481.5 L 435 482.5 L 435.5 484 Q 430.9 485.2 433 480 Z " /><path fill="rgb(234,234,234)" stroke="rgb(234,234,234)" stroke-width="1" opacity="0.08627450980392157" d="M 438 482 L 440 482.5 L 438 483.5 L 438 482 Z " /><path fill="rgb(234,234,234)" stroke="rgb(234,234,234)" stroke-width="1" opacity="0.08627450980392157" d="M 446.5 485 L 455 488.5 L 452.5 492 L 452 490.5 L 452.5 489 Q 448 490 447 487.5 L 447.5 486 L 446.5 485 Z " /><path fill="rgb(234,234,234)" stroke="rgb(234,234,234)" stroke-width="1" opacity="0.08627450980392157" d="M 444.5 486 L 445.5 488 Q 442.7 488.7 444.5 486 Z " /><path fill="rgb(234,234,234)" stroke="rgb(234,234,234)" stroke-width="1" opacity="0.08627450980392157" d="M 224.5 488 L 226.5 491 L 224.5 488 Z " /><path fill="rgb(234,234,234)" stroke="rgb(234,234,234)" stroke-width="1" opacity="0.08627450980392157" d="M 390.5 488 L 394.5 489 L 396 488.5 L 394.5 491 L 390.5 489 L 390.5 488 Z " /><path fill="rgb(234,234,234)" stroke="rgb(234,234,234)" stroke-width="1" opacity="0.08627450980392157" d="M 398.5 488 L 399.5 490 L 398 490.5 L 399 492.5 L 398 492.5 L 397.5 491 L 396 491.5 L 398.5 488 Z " /><path fill="rgb(234,234,234)" stroke="rgb(234,234,234)" stroke-width="1" opacity="0.08627450980392157" d="M 456.5 489 L 461 491.5 L 459.5 491 Q 455.7 490.8 456.5 489 Z " /><path fill="rgb(234,234,234)" stroke="rgb(234,234,234)" stroke-width="1" opacity="0.08627450980392157" d="M 228.5 491 L 232 493 L 231.5 495 L 229 493.5 L 228.5 495 L 228.5 491 Z " /><path fill="rgb(234,234,234)" stroke="rgb(234,234,234)" stroke-width="1" opacity="0.08627450980392157" d="M 402 492 L 405.5 493 L 407 492.5 Q 406.3 496.8 409 497.5 L 407.5 497 L 402 495 L 402 492 Z " /><path fill="rgb(234,234,234)" stroke="rgb(234,234,234)" stroke-width="1" opacity="0.08627450980392157" d="M 464.5 492 L 468 493 Q 469.5 496.7 466.5 496 L 464 495.5 L 465 493.5 L 464.5 492 Z " /><path fill="rgb(234,234,234)" stroke="rgb(234,234,234)" stroke-width="1" opacity="0.08627450980392157" d="M 469 494 L 478 497.5 L 477.5 500 Q 474.9 500.8 476 497.5 L 474.5 498 L 473 498.5 L 473.5 500 L 472 497.5 L 472.5 496 Q 467.7 497.3 469 494 Z " /><path fill="rgb(234,234,234)" stroke="rgb(234,234,234)" stroke-width="1" opacity="0.08627450980392157" d="M 233.5 495 L 239 495.5 L 233.5 496 L 233.5 495 Z " /><path fill="rgb(234,234,234)" stroke="rgb(234,234,234)" stroke-width="1" opacity="0.08627450980392157" d="M 248.5 496 Q 253.9 494.1 253 497.5 L 251 498.5 L 251.5 497 Q 247.5 497.7 248.5 496 Z " /><path fill="rgb(234,234,234)" stroke="rgb(234,234,234)" stroke-width="1" opacity="0.08627450980392157" d="M 410 496 Q 412.7 494.9 412 497.5 L 413 500 L 417.5 501 L 419 500.5 L 418.5 502 L 422 504.5 L 421.5 506 L 412 499.5 L 411.5 498 L 410 498.5 L 410 496 Z " /><path fill="rgb(234,234,234)" stroke="rgb(234,234,234)" stroke-width="1" opacity="0.08627450980392157" d="M 255.5 497 L 257.5 498 Q 259.2 495.3 265.5 497 L 265.5 498 Q 262.2 496.9 263 499.5 L 260 499.5 L 260.5 498 L 256.5 499 L 255.5 497 Z " /><path fill="rgb(234,234,234)" stroke="rgb(234,234,234)" stroke-width="1" opacity="0.08627450980392157" d="M 274 498 L 280 498.5 L 274.5 500 L 274 498 Z " /><path fill="rgb(234,234,234)" stroke="rgb(234,234,234)" stroke-width="1" opacity="0.08627450980392157" d="M 479.5 498 Q 481.8 497.3 481 499.5 L 479.5 498 Z " /><path fill="rgb(234,234,234)" stroke="rgb(234,234,234)" stroke-width="1" opacity="0.08627450980392157" d="M 283.5 499 L 293.5 499 L 294 501 L 283.5 500 L 283.5 499 Z " /><path fill="rgb(234,234,234)" stroke="rgb(234,234,234)" stroke-width="1" opacity="0.08627450980392157" d="M 301.5 500 Q 307.5 498.5 309 501.5 Q 308.3 504.8 303.5 504 L 301.5 500 Z M 305 501 L 304 503 L 308 502 L 305 501 Z " /><path fill="rgb(234,234,234)" stroke="rgb(234,234,234)" stroke-width="1" opacity="0.08627450980392157" d="M 484 500 L 488 501.5 L 484 502 L 484 500 Z " /><path fill="rgb(234,234,234)" stroke="rgb(234,234,234)" stroke-width="1" opacity="0.08627450980392157" d="M 312 501 L 321 501.5 L 312 503 L 312 501 Z " /><path fill="rgb(234,234,234)" stroke="rgb(234,234,234)" stroke-width="1" opacity="0.08627450980392157" d="M 322 502 Q 325 501 324 504 Q 321 505 322 502 Z " /><path fill="rgb(234,234,234)" stroke="rgb(234,234,234)" stroke-width="1" opacity="0.08627450980392157" d="M 330.5 502 Q 336.4 500.3 335 504 Q 329.8 504.3 330.5 502 Z " /><path fill="rgb(234,234,234)" stroke="rgb(234,234,234)" stroke-width="1" opacity="0.08627450980392157" d="M 489 502 L 501 506.5 L 499.5 507 L 497.5 506 L 497.5 508 L 493 507.5 L 493.5 506 L 492 505.5 L 494 504.5 L 490.5 503 L 489 503.5 L 489 502 Z " /><path fill="rgb(234,234,234)" stroke="rgb(234,234,234)" stroke-width="1" opacity="0.08627450980392157" d="M 336.5 503 L 347.5 503 L 350 504.5 L 340.5 505 L 336.5 504 L 336.5 503 Z " /><path fill="rgb(234,234,234)" stroke="rgb(234,234,234)" stroke-width="1" opacity="0.08627450980392157" d="M 356 504 L 363 504.5 L 362.5 506 L 364.5 505 L 365 507 L 359.5 508 L 359.5 507 L 362 506.5 L 357.5 505 L 356 505.5 L 356 504 Z " /><path fill="rgb(234,234,234)" stroke="rgb(234,234,234)" stroke-width="1" opacity="0.08627450980392157" d="M 368.5 505 L 376 505.5 L 372.5 507 L 368.5 506 L 368.5 505 Z " /><path fill="rgb(234,234,234)" stroke="rgb(234,234,234)" stroke-width="1" opacity="0.08627450980392157" d="M 378.5 506 Q 380.8 505.3 380 507.5 L 378.5 506 Z " /><path fill="rgb(234,234,234)" stroke="rgb(234,234,234)" stroke-width="1" opacity="0.08627450980392157" d="M 383.5 506 Q 389.9 505.1 393 507.5 L 388.5 508 L 385.5 507 Q 383.7 509.5 383.5 506 Z " /><path fill="rgb(234,234,234)" stroke="rgb(234,234,234)" stroke-width="1" opacity="0.08627450980392157" d="M 423.5 506 L 424 508.5 L 423.5 510 L 422 507.5 L 423.5 506 Z " /><path fill="rgb(234,234,234)" stroke="rgb(234,234,234)" stroke-width="1" opacity="0.08627450980392157" d="M 397.5 507 L 402 507.5 L 397.5 508 L 397.5 507 Z " /><path fill="rgb(234,234,234)" stroke="rgb(234,234,234)" stroke-width="1" opacity="0.08627450980392157" d="M 502.5 507 L 506 508 L 504.5 511 L 504 508 L 502.5 507 Z " /><path fill="rgb(234,234,234)" stroke="rgb(234,234,234)" stroke-width="1" opacity="0.08627450980392157" d="M 412 508 L 417 508.5 L 413 509.5 L 416 510.5 Q 414 514 412 509.5 L 412 508 Z " /><path fill="rgb(234,234,234)" stroke="rgb(234,234,234)" stroke-width="1" opacity="0.08627450980392157" d="M 536 508 Q 540.1 506.3 539 510.5 L 538.5 512 L 540 512.5 L 539.5 514 L 541 514 Q 539.5 517.7 542.5 517 L 543 519.5 L 544 523.5 L 542.5 523 Q 536.6 524.7 538 521 Q 540.7 522.1 540 519.5 L 541 517.5 L 535 510.5 L 536 508 Z " /><path fill="rgb(234,234,234)" stroke="rgb(234,234,234)" stroke-width="1" opacity="0.08627450980392157" d="M 507.5 509 L 516 512.5 L 514 513.5 L 515.5 516 L 513.5 516 Q 511.3 516.8 512 514.5 Q 514.7 512.8 510.5 511 L 509 511.5 Q 509.8 509.3 507.5 510 L 507.5 509 Z " /><path fill="rgb(234,234,234)" stroke="rgb(234,234,234)" stroke-width="1" opacity="0.08627450980392157" d="M 418.5 511 L 422 511.5 L 418.5 512 L 418.5 511 Z " /><path fill="rgb(234,234,234)" stroke="rgb(234,234,234)" stroke-width="1" opacity="0.08627450980392157" d="M 517.5 513 L 537 520 L 536.5 523 L 536 521 Q 531.8 522 530.5 519 L 527 519.5 Q 529.3 518.3 526.5 517 L 524.5 520 L 524 517 Q 520.2 518 519 515.5 Q 519.8 513.3 517.5 514 L 517.5 513 Z " /><path fill="rgb(249,236,3)" stroke="rgb(249,236,3)" stroke-width="1" opacity="0.996078431372549" d="M 161.5 113 L 349.5 122 L 473.5 215 L 476 215.5 L 464.5 216 L 463.5 215 L 442.5 215 L 441.5 214 L 419.5 214 L 418.5 213 L 396.5 213 L 395.5 212 L 374.5 212 Q 373 209.5 367.5 211 L 351 199.5 L 338 166 L 335 166 Q 336.3 163 332.5 164 L 331.5 163 L 315.5 162 L 291.5 157 L 286.5 157 L 242.5 146 L 196.5 130 L 161.5 114 L 161.5 113 Z " /><path fill="rgb(249,236,3)" stroke="rgb(249,236,3)" stroke-width="1" opacity="0.996078431372549" d="M 65.5 124 L 123 138.5 L 76.5 139 L 65.5 124 Z " /><path fill="rgb(249,236,3)" stroke="rgb(249,236,3)" stroke-width="1" opacity="0.996078431372549" d="M 125.5 198 L 140 198.5 L 125.5 199 L 125.5 198 Z " /><path fill="rgb(249,236,3)" stroke="rgb(249,236,3)" stroke-width="1" opacity="0.996078431372549" d="M 196.5 198 L 212 198.5 L 196.5 199 L 196.5 198 Z " /><path fill="rgb(249,236,3)" stroke="rgb(249,236,3)" stroke-width="1" opacity="0.996078431372549" d="M 346.5 306 L 349.5 310 L 346.5 306 Z " /><path fill="rgb(249,236,3)" stroke="rgb(249,236,3)" stroke-width="1" opacity="0.996078431372549" d="M 157.5 338 L 238 338.5 L 157.5 339 L 157.5 338 Z " /><path fill="rgb(249,236,3)" stroke="rgb(249,236,3)" stroke-width="1" opacity="0.996078431372549" d="M 396.5 357 L 399.5 361 L 396.5 357 Z " /><path fill="rgb(249,236,3)" stroke="rgb(249,236,3)" stroke-width="1" opacity="0.996078431372549" d="M 76.5 378 L 90.5 378 L 91.5 379 L 102.5 379 L 103.5 380 L 114.5 380 L 115.5 381 L 126.5 381 L 127.5 382 L 137.5 382 L 138.5 383 L 149.5 383 L 150.5 384 L 161.5 384 L 162.5 385 L 173.5 385 L 174.5 386 L 189.5 387 L 228 420.5 L 247 450 L 289.5 457 L 326.5 467 L 379.5 487 L 411 503.5 L 397.5 504 L 396.5 503 L 383.5 503 L 382.5 502 L 370.5 502 L 369.5 501 L 356.5 501 L 355.5 500 L 342.5 500 L 341.5 499 L 328.5 499 L 327.5 498 L 315.5 498 L 314.5 497 L 301.5 497 L 300.5 496 L 288.5 496 L 287.5 495 L 274.5 495 L 273.5 494 L 235.5 492 L 77.5 380 L 76.5 378 Z " /><path fill="rgb(249,236,3)" stroke="rgb(249,236,3)" stroke-width="1" opacity="0.996078431372549" d="M 446.5 408 L 449.5 412 L 446.5 408 Z " /><path fill="rgb(249,236,3)" stroke="rgb(249,236,3)" stroke-width="1" opacity="0.996078431372549" d="M 493.5 499 L 501.5 499 L 516.5 502 L 524 502 Q 522.9 504.7 525.5 504 L 535 515.5 L 533.5 515 L 495.5 501 L 493.5 499 Z " /><path fill="rgb(9,9,9)" stroke="rgb(9,9,9)" stroke-width="1" opacity="0.9568627450980393" d="M 152 109 L 186.5 110 L 187.5 111 L 207.5 111 L 208.5 112 L 227.5 112 L 228.5 113 L 247.5 113 L 248.5 114 L 267.5 114 L 268.5 115 L 288.5 115 L 289.5 116 L 308.5 116 L 309.5 117 L 329.5 117 L 330.5 118 L 348.5 118 L 351.5 119 L 507.5 236 L 512 238 L 513 240.5 L 462 287.5 Q 462.8 290.1 459.5 289 L 348 201.5 L 333.5 167 L 294.5 162 L 243.5 150 L 192.5 132 L 152 113 L 152 109 Z M 162 113 L 162 114 L 197 130 L 243 146 L 287 157 L 292 157 L 316 162 L 332 163 L 333 164 Q 336 163 335 166 L 338 166 L 351 200 L 362 208 L 367 210 L 378 220 L 448 274 L 451 277 L 452 276 L 452 278 L 460 284 L 506 242 Q 508 243 507 241 L 476 217 L 476 216 L 474 215 L 350 122 L 162 113 Z " /><path fill="rgb(9,9,9)" stroke="rgb(9,9,9)" stroke-width="1" opacity="0.9568627450980393" d="M 60 119 L 79.5 123 L 83.5 125 L 106.5 130 L 110.5 132 L 316 185 L 325 209 L 421 277.5 L 420 281 L 378.5 279 L 377.5 278 L 363.5 278 L 362.5 277 L 349.5 277 L 348.5 276 L 335.5 276 L 334.5 275 L 333.5 276 L 329.5 272 L 204.5 181 L 205 182.5 L 218 199.5 L 217 202 L 124.5 202 L 122.5 203 L 59 121.5 L 60 119 Z M 66 124 L 74 137 L 78 139 L 122 197 L 126 199 L 140 199 L 141 198 L 196 198 L 197 199 L 212 199 L 191 172 Q 185 169 191 166 L 334 271 L 336 272 L 349 272 L 350 273 L 363 273 L 364 274 L 377 274 L 378 275 L 406 276 L 407 277 L 413 277 L 326 214 L 319 206 L 314 191 L 309 187 L 66 124 Z " /><path fill="rgb(9,9,9)" stroke="rgb(9,9,9)" stroke-width="1" opacity="0.9568627450980393" d="M 141.5 215 L 202.5 215 L 204.5 216 L 299.5 284 L 309.5 287 L 336.5 291 L 384 338.5 L 458.5 415 L 460 415 L 460 419 L 440.5 416 L 435.5 414 L 431.5 414 L 426.5 412 L 422.5 412 L 347.5 395 L 266.5 330 L 207.5 311 L 206 309.5 L 144 225.5 L 139 218.5 L 139 216 L 141.5 215 Z M 146 219 L 146 222 L 208 306 L 212 308 L 268 326 L 351 392 L 447 413 Q 451 414 450 412 L 446 407 L 445 408 L 445 407 L 350 310 L 336 295 L 300 289 L 202 219 L 146 219 Z " /><path fill="rgb(9,9,9)" stroke="rgb(9,9,9)" stroke-width="1" opacity="0.9568627450980393" d="M 121.5 326 L 132 333 L 136.5 339 L 185.5 380 L 189 381 L 191.5 385 L 229 415 L 232 421.5 L 250.5 447 L 267.5 449 L 292.5 454 L 343.5 469 L 389.5 488 L 421 505.5 L 420 509 L 416.5 508 L 403.5 508 L 402.5 507 L 376.5 506 L 375.5 505 L 363.5 505 L 362.5 504 L 348.5 504 L 347.5 503 L 335.5 503 L 334.5 502 L 321.5 502 L 320.5 501 L 308.5 501 L 307.5 500 L 294.5 500 L 293.5 499 L 280.5 499 L 279.5 498 L 266.5 498 L 265.5 497 L 253.5 497 L 252.5 496 L 239.5 496 L 238.5 495 L 232 495 Q 233.1 492.3 230.5 493 L 70 378.5 L 70 376.5 L 84.5 362 L 121.5 326 Z M 121 331 L 121 333 L 81 371 L 75 378 L 236 492 L 274 494 L 275 495 L 288 495 L 289 496 L 301 496 L 302 497 L 315 497 L 316 498 L 328 498 L 329 499 L 342 499 L 343 500 L 356 500 L 357 501 L 370 501 L 371 502 L 383 502 L 384 503 L 397 503 L 398 504 L 411 504 L 380 487 L 327 467 L 290 457 L 247 450 L 228 421 L 219 411 L 176 376 Q 173 377 174 374 Q 163 368 155 359 Q 152 360 153 358 L 133 338 L 124 331 L 121 331 Z " /><path fill="rgb(9,9,9)" stroke="rgb(9,9,9)" stroke-width="1" opacity="0.9568627450980393" d="M 152 335 L 241.5 335 L 373.5 434 L 378 436 L 367 420.5 Q 368 417 373.5 418 L 383.5 421 L 481 440 L 481 442.5 L 541 518.5 L 540 521 L 516.5 513 L 286.5 422 L 274.5 421 L 273.5 420 L 261 420 L 259.5 417 L 152 341 L 152 335 Z M 158 338 L 164 344 L 265 416 L 286 417 L 288 419 L 492 498 L 496 501 L 532 515 L 534 515 L 528 507 L 524 504 L 522 500 L 479 446 L 477 443 L 453 439 L 448 437 L 409 430 L 379 423 L 374 424 L 390 445 L 394 449 L 392 451 L 378 442 L 238 338 L 158 338 Z " /><path fill="rgb(0,0,0)" stroke="rgb(0,0,0)" stroke-width="1" opacity="0" d="M 0 0 L 600 0 L 600 600 L 0 600 L 0 0 Z M 153 108 L 150 111 L 152 114 L 151 113 L 150 115 L 149 114 L 148 116 L 154 114 L 154 116 L 156 115 L 166 122 Q 165 125 168 124 L 167 123 L 170 122 L 173 127 Q 175 126 173 125 L 177 126 Q 176 128 179 127 L 182 128 Q 185 127 184 130 L 191 132 L 188 133 L 193 134 L 197 134 Q 196 137 199 136 L 200 138 L 195 135 L 192 136 L 199 139 L 207 138 L 205 141 L 227 152 Q 229 153 228 151 L 218 144 L 216 145 L 214 144 L 212 141 L 208 140 L 209 138 L 214 141 Q 217 140 216 143 L 219 142 L 218 144 L 223 145 L 225 144 Q 226 147 229 146 L 230 148 L 230 146 L 235 148 L 237 148 L 247 152 L 252 152 L 255 155 L 259 154 Q 260 157 262 155 Q 263 157 268 156 Q 269 159 271 157 Q 273 156 272 159 L 274 158 L 292 162 L 294 162 L 301 164 L 312 165 L 313 168 L 316 167 L 315 166 L 315 165 L 320 166 L 322 166 L 333 168 L 332 170 L 335 171 L 336 175 L 336 177 L 338 179 Q 340 178 339 182 L 342 189 Q 339 188 340 192 L 344 195 L 345 194 L 344 196 L 346 199 L 344 200 L 346 200 L 347 203 L 357 209 L 358 212 L 360 211 L 361 216 L 361 214 L 365 217 L 364 220 L 367 218 L 371 220 L 372 223 L 374 222 L 374 224 L 382 230 L 381 229 L 380 232 L 382 231 Q 386 230 388 233 L 389 236 L 395 239 Q 397 238 396 242 L 398 241 L 408 249 L 409 252 L 412 253 L 412 255 Q 417 253 416 257 L 421 259 L 422 263 L 423 261 L 428 265 Q 430 264 429 267 L 429 269 L 437 272 L 436 275 Q 438 278 440 274 L 441 278 L 443 277 L 442 280 L 445 278 L 444 280 L 447 281 L 449 281 L 449 284 L 451 283 Q 454 282 452 286 L 454 287 L 452 288 L 456 288 L 460 290 L 464 288 Q 463 285 466 286 L 465 288 L 467 288 L 468 286 Q 467 282 470 283 L 473 279 Q 474 275 480 276 L 479 275 L 481 272 Q 483 273 482 271 L 486 269 Q 488 268 486 267 L 493 261 L 495 262 L 494 261 L 499 255 Q 501 256 500 254 L 502 254 L 502 253 L 504 253 L 504 251 L 507 252 Q 509 253 508 250 L 507 250 L 505 250 L 509 247 L 511 247 Q 513 246 512 242 L 515 241 L 514 240 L 514 239 L 516 240 L 516 238 L 515 238 Q 512 239 513 237 L 512 237 L 507 234 L 504 231 L 503 231 L 503 230 Q 502 227 501 229 L 492 224 L 490 220 Q 487 221 488 218 L 486 218 L 482 215 L 480 213 L 478 212 Q 475 213 476 210 L 473 209 Q 469 207 471 205 Q 467 206 468 204 L 465 203 L 467 203 Q 468 200 466 201 L 464 201 L 460 200 L 459 196 L 457 197 L 456 196 L 451 192 L 452 188 L 448 190 L 450 190 L 451 190 L 450 192 L 444 184 L 443 186 L 444 187 L 440 183 L 437 182 L 440 181 L 440 180 L 436 181 L 434 179 Q 432 180 430 176 Q 427 177 428 175 L 425 172 Q 422 173 423 170 Q 418 169 416 165 Q 412 166 413 163 L 412 163 L 410 161 L 409 161 L 408 159 L 405 158 L 402 154 L 399 153 L 397 151 L 395 151 L 396 149 L 395 149 L 393 148 L 390 146 L 388 143 L 387 143 Q 388 145 386 144 L 382 140 L 381 140 L 379 137 L 377 137 L 372 133 L 371 131 Q 372 128 369 129 L 370 132 Q 366 130 368 128 L 366 129 L 366 128 L 365 126 L 362 126 L 362 125 L 360 123 Q 357 124 358 122 L 357 122 L 356 119 L 354 120 L 353 117 L 352 117 Q 353 119 351 118 L 349 118 L 346 116 L 346 118 L 340 116 L 338 117 Q 332 119 331 116 L 329 117 L 326 116 Q 321 115 320 117 L 319 116 L 300 115 L 298 115 L 296 114 L 292 115 L 277 114 L 276 113 L 274 114 L 270 114 L 274 113 L 274 112 Q 267 110 268 114 Q 263 115 264 112 L 260 112 L 260 114 L 253 112 L 251 113 L 248 112 L 246 113 L 244 112 L 221 112 L 220 111 L 219 111 L 214 110 L 212 110 L 204 111 L 204 109 L 196 111 L 186 109 L 184 110 L 177 109 L 175 109 Q 170 110 169 108 L 166 109 L 153 108 Z M 197 108 L 197 109 L 200 109 L 197 108 Z M 216 108 L 216 110 L 218 109 L 216 108 Z M 281 112 L 281 113 L 284 113 L 281 112 Z M 291 112 L 291 113 L 293 113 L 291 112 Z M 61 116 L 60 120 L 58 120 L 58 122 L 56 123 L 59 123 L 69 136 L 68 138 L 70 138 Q 69 141 72 140 L 72 143 L 74 142 L 75 145 L 76 145 L 76 149 L 79 149 L 81 153 Q 83 152 82 156 L 84 155 L 84 157 L 84 159 Q 85 161 87 159 L 90 164 L 90 165 L 89 163 L 88 166 Q 90 169 92 165 L 93 168 L 93 169 L 95 169 Q 94 172 97 171 L 96 173 L 98 173 L 102 179 Q 101 181 104 180 L 104 183 L 106 183 L 107 186 L 105 184 L 104 188 L 106 187 L 111 190 L 108 191 L 110 192 L 113 191 Q 111 193 114 195 L 113 196 L 117 198 L 116 200 L 122 203 L 124 203 L 148 203 L 149 204 L 168 204 L 169 203 L 173 204 L 177 203 L 192 203 L 193 204 L 197 203 Q 210 202 217 204 L 219 198 L 223 195 L 225 196 L 224 198 Q 223 201 227 200 L 227 198 L 236 205 Q 238 204 237 208 L 239 207 L 255 218 L 256 221 L 258 222 L 256 223 L 258 223 L 260 223 L 263 225 Q 264 228 266 227 Q 265 229 269 228 L 270 231 L 273 231 L 277 234 L 276 236 L 279 237 Q 282 236 281 239 L 285 240 L 286 244 L 288 243 L 295 248 Q 297 247 296 250 L 300 252 Q 302 251 301 254 L 304 254 L 308 257 L 307 259 L 308 260 L 310 259 L 312 263 Q 314 261 316 264 Q 318 263 317 266 L 320 266 L 330 273 L 330 274 Q 327 273 328 276 L 330 275 L 333 277 L 338 276 Q 344 274 344 278 L 346 277 L 355 277 L 357 279 L 363 278 L 362 280 L 366 280 L 370 278 L 370 280 L 373 279 L 376 280 L 379 279 L 381 280 L 384 279 L 386 279 L 387 280 L 400 280 L 402 284 L 402 283 L 402 281 L 405 282 L 408 281 L 409 284 L 410 281 L 417 283 L 421 282 Q 423 281 421 280 L 423 277 L 424 280 L 424 276 L 420 275 Q 417 276 418 273 L 412 270 L 414 269 L 412 268 L 410 268 Q 407 269 408 266 L 406 266 L 406 264 L 403 264 L 401 260 L 396 258 L 396 257 L 393 256 L 389 252 L 387 252 L 387 251 L 381 248 L 374 240 L 373 242 L 371 239 Q 373 240 372 238 L 370 237 L 369 239 L 367 236 L 365 236 L 360 232 L 357 229 L 356 229 L 353 226 L 352 226 L 352 224 Q 347 225 348 222 L 346 222 L 333 213 L 330 209 L 327 208 L 321 198 L 323 198 Q 324 194 320 196 Q 321 192 318 190 L 320 190 L 320 187 L 312 182 L 309 183 L 296 178 L 292 178 Q 290 175 284 176 L 284 175 L 284 172 L 283 174 L 280 175 L 276 174 L 278 173 L 278 172 L 274 173 L 271 173 L 273 172 L 269 169 L 267 170 L 270 171 L 270 172 Q 266 173 267 171 L 266 171 L 261 170 L 259 168 L 256 169 L 255 167 L 251 165 L 248 166 L 250 167 L 249 167 L 247 165 L 244 166 L 244 164 L 242 165 Q 238 162 232 163 L 232 160 L 231 162 L 221 159 L 218 157 L 218 159 L 215 158 Q 213 154 212 157 L 206 156 L 204 153 L 203 155 L 198 154 L 200 153 L 198 152 L 195 153 L 188 151 L 188 150 L 186 148 L 185 150 L 181 149 L 181 148 L 177 145 L 175 146 L 178 147 L 178 148 Q 174 149 175 147 L 174 147 L 170 146 Q 167 147 168 145 L 161 140 L 158 141 L 164 143 L 165 145 L 158 143 Q 154 144 155 142 L 153 140 L 153 142 L 150 140 L 140 139 L 136 136 L 130 136 Q 128 132 127 135 L 125 135 L 127 134 Q 125 130 124 134 L 122 133 L 120 133 L 106 129 L 104 129 L 98 128 Q 96 124 95 127 Q 92 128 93 125 L 91 126 L 84 124 L 84 122 L 81 123 L 79 123 L 76 122 L 72 120 Q 67 121 68 119 L 68 116 L 62 117 L 66 118 L 66 119 L 61 116 Z M 64 134 L 65 136 L 67 135 L 64 134 Z M 143 137 L 143 138 L 145 138 L 143 137 Z M 384 140 L 384 141 L 386 141 L 384 140 Z M 231 148 L 231 149 L 235 151 L 237 151 L 231 148 Z M 239 150 L 240 152 L 242 152 L 239 150 Z M 287 162 Q 285 165 288 164 L 287 162 Z M 310 167 L 311 169 L 312 169 L 310 167 Z M 337 181 L 337 184 L 338 184 Q 339 180 337 181 Z M 319 184 L 320 186 Q 321 183 319 184 Z M 229 201 Q 227 204 230 203 L 229 201 Z M 346 201 L 344 203 L 346 204 L 346 201 Z M 327 205 Q 325 208 328 207 L 327 205 Z M 241 210 L 242 212 Q 243 209 241 210 Z M 144 212 L 140 214 L 142 215 L 137 218 L 138 220 L 138 219 L 139 219 L 138 221 L 141 221 L 142 225 L 146 229 L 145 230 L 148 232 Q 146 236 151 235 L 154 241 L 153 241 L 153 244 L 156 242 Q 158 243 156 245 L 158 245 L 160 250 L 164 252 L 165 255 L 164 259 L 165 260 L 167 257 Q 170 258 169 264 L 171 263 L 178 273 L 176 276 L 180 275 L 181 278 L 182 280 L 184 280 L 184 286 L 186 287 L 188 286 L 188 289 Q 191 288 190 292 L 192 292 Q 191 294 194 293 L 197 300 Q 202 302 201 305 Q 203 304 202 307 L 202 308 L 204 307 L 204 311 Q 207 310 209 313 L 214 314 L 212 315 L 215 316 L 215 314 Q 218 313 217 316 L 219 315 L 224 316 L 225 319 L 225 317 Q 228 316 227 319 L 230 320 L 232 319 L 239 322 L 241 324 L 244 323 L 248 324 Q 249 327 251 326 L 250 328 L 252 327 L 254 328 L 258 328 Q 262 327 260 332 L 265 330 L 265 332 L 268 332 L 274 338 Q 273 342 278 340 L 280 344 L 286 346 L 293 352 L 292 354 L 296 354 L 300 359 L 299 360 L 304 362 L 306 362 L 305 364 L 311 367 Q 313 366 312 370 L 315 370 Q 318 369 316 374 Q 317 376 319 374 L 324 377 Q 326 376 325 379 L 329 380 Q 332 380 332 386 L 334 385 L 344 392 Q 346 393 344 395 L 354 398 L 356 397 L 358 398 L 358 400 L 362 399 L 371 401 L 373 401 L 373 403 Q 375 406 377 402 L 380 403 L 384 403 Q 386 406 393 405 L 393 406 Q 387 404 388 408 L 390 407 L 393 408 L 396 406 L 398 407 Q 397 409 400 408 L 402 408 Q 406 406 405 410 L 407 409 Q 411 408 413 411 L 418 411 L 420 411 L 429 413 L 430 415 L 428 415 Q 427 418 431 416 L 432 414 L 440 416 Q 441 419 443 417 L 445 418 L 442 419 L 447 419 L 453 419 L 455 420 L 461 420 L 461 418 L 462 417 L 456 411 Q 457 408 454 409 L 453 406 L 452 406 L 452 405 L 447 402 Q 448 399 445 400 L 444 397 L 443 397 L 440 394 L 440 392 L 436 392 L 435 388 L 428 383 Q 429 380 427 381 L 424 377 Q 422 378 420 375 Q 421 370 417 372 L 418 368 L 415 369 L 410 363 Q 407 364 408 361 L 406 361 L 406 360 L 399 354 Q 400 351 397 350 L 399 349 L 396 348 L 396 350 L 394 347 L 393 347 L 390 344 L 392 343 L 390 340 L 389 342 L 388 342 Q 389 339 386 340 L 385 336 L 383 335 Q 380 336 381 333 L 376 330 L 378 329 L 376 328 L 376 325 L 375 328 L 374 326 L 370 324 Q 371 321 369 322 Q 365 322 366 318 L 365 318 L 365 317 L 362 316 L 363 313 L 359 312 L 359 311 L 356 310 L 355 308 L 356 306 L 354 307 L 350 303 L 347 301 L 348 298 L 347 298 L 347 297 L 345 296 L 345 298 L 341 293 L 338 291 Q 335 292 336 289 L 334 290 L 332 289 L 330 289 L 328 288 L 320 288 L 320 285 L 318 284 L 316 285 L 314 285 Q 313 287 318 286 L 318 287 L 311 285 L 309 286 L 301 284 Q 298 283 300 282 L 294 279 Q 295 275 293 276 L 291 277 L 292 275 L 291 275 L 288 274 L 290 273 Q 284 273 282 270 L 279 267 Q 278 264 277 266 L 274 264 Q 271 265 272 263 L 269 261 Q 266 260 268 259 Q 269 256 266 257 L 266 259 L 264 256 L 263 256 L 259 254 L 261 254 L 263 253 L 256 252 L 253 249 Q 250 250 251 247 L 252 245 L 250 246 L 249 244 L 248 246 L 245 242 L 239 240 L 233 234 L 232 234 L 232 232 Q 227 233 228 231 L 226 231 Q 227 228 223 229 L 223 228 L 216 223 Q 217 220 215 221 L 213 222 Q 214 219 212 220 L 210 218 L 209 218 L 209 217 L 208 216 L 206 216 Q 203 217 204 214 L 195 215 L 195 213 L 188 214 L 192 214 L 192 215 L 188 214 L 184 215 L 180 215 L 184 214 L 184 213 L 168 214 L 176 214 L 176 215 Q 169 217 168 214 L 153 214 L 152 215 L 144 215 L 144 212 Z M 153 212 L 153 213 L 168 213 L 153 212 Z M 149 213 L 149 214 L 152 214 L 149 213 Z M 344 216 L 342 218 L 344 218 L 344 216 Z M 497 224 L 498 226 Q 499 223 497 224 Z M 274 233 L 272 236 L 274 235 L 274 233 Z M 239 236 Q 237 239 240 238 L 239 236 Z M 401 245 L 403 248 L 403 247 L 401 245 Z M 499 256 L 499 258 Q 498 260 497 258 L 496 260 L 500 259 Q 501 255 499 256 Z M 305 258 Q 303 261 306 260 L 305 258 Z M 490 266 Q 489 269 492 268 Q 493 265 490 266 Z M 489 267 L 487 269 L 489 269 L 489 267 Z M 173 269 Q 171 272 174 271 L 173 269 Z M 484 270 L 484 272 L 487 272 L 484 270 Z M 348 278 L 348 279 L 350 279 L 348 278 Z M 353 278 Q 352 281 355 280 Q 356 277 353 278 Z M 411 283 L 411 284 L 416 284 L 411 283 Z M 338 288 L 339 290 L 340 290 L 338 288 Z M 459 290 L 457 292 L 459 292 L 459 290 Z M 352 300 L 350 302 L 352 302 L 352 300 Z M 373 324 L 373 325 L 375 325 L 373 324 Z M 120 326 L 120 328 L 116 331 Q 117 333 115 332 L 112 336 L 108 338 L 106 341 L 104 340 L 104 342 L 101 346 L 100 345 L 99 345 Q 100 349 96 347 L 96 350 Q 95 353 92 352 L 92 354 L 87 358 L 87 360 L 86 359 L 85 361 L 84 360 L 78 368 Q 75 367 76 370 L 70 374 Q 71 376 68 378 L 73 382 L 72 384 L 74 383 L 77 384 L 78 387 L 79 385 L 81 390 L 81 389 L 85 391 L 86 390 L 88 394 L 90 393 L 89 396 L 92 395 L 94 396 Q 96 397 94 399 Q 95 402 101 401 Q 103 402 101 404 L 105 404 L 104 408 L 107 406 L 107 408 L 109 407 L 110 410 L 112 409 L 112 411 L 114 411 Q 113 413 117 412 L 116 414 L 118 414 L 119 416 L 121 415 L 122 418 L 124 417 L 128 420 L 130 424 L 132 423 L 134 427 L 136 426 L 135 428 L 143 432 Q 146 431 145 434 L 145 435 L 148 434 Q 151 436 150 438 L 152 437 L 156 440 Q 159 442 158 444 L 160 443 L 160 445 L 162 444 L 161 446 Q 163 450 165 447 L 168 448 L 169 452 L 171 451 L 172 454 L 176 456 L 176 454 Q 178 455 176 457 L 177 460 L 178 457 Q 186 460 190 466 L 189 468 L 192 466 L 193 469 L 196 469 Q 194 473 198 472 L 198 470 L 201 472 L 203 476 L 205 475 Q 208 477 204 479 L 205 480 L 208 479 L 207 478 L 209 479 Q 208 481 212 480 L 213 483 L 214 481 L 214 483 L 214 484 L 216 483 L 228 491 L 229 495 L 230 493 L 234 496 Q 246 494 253 498 L 255 497 L 257 497 L 263 500 L 263 498 L 274 498 L 274 500 L 276 499 Q 284 498 289 501 L 301 500 L 303 503 Q 303 500 308 501 L 310 501 Q 313 500 312 503 L 317 502 Q 323 500 322 504 Q 325 505 324 502 Q 330 501 333 504 L 336 503 L 341 505 L 350 505 L 351 504 Q 357 503 356 506 L 358 505 L 361 506 L 363 505 L 364 506 L 360 507 L 360 508 L 364 507 Q 366 508 365 505 L 373 507 L 378 506 L 380 508 Q 379 505 383 506 Q 384 509 386 507 L 389 508 L 394 507 L 412 508 L 413 510 L 414 509 L 421 509 L 422 505 L 417 500 Q 412 501 413 499 L 412 499 L 412 498 Q 413 495 410 496 L 410 498 Q 406 497 407 492 L 405 493 L 405 495 Q 402 494 404 493 L 402 492 L 402 494 L 401 493 L 400 493 L 399 492 L 397 491 Q 394 492 395 489 L 392 488 Q 388 489 389 487 L 384 484 Q 380 485 381 483 L 379 480 L 376 481 L 365 477 Q 363 473 362 476 L 359 475 L 361 474 L 359 472 L 357 472 L 355 473 L 349 470 Q 345 471 346 468 L 344 469 L 340 465 L 338 465 Q 336 467 335 464 L 333 465 L 328 464 L 328 461 L 325 463 L 323 461 Q 313 460 307 456 L 305 457 L 300 456 L 300 454 L 298 455 L 294 454 L 299 453 L 299 452 Q 294 451 293 453 Q 283 454 280 448 L 280 450 L 279 449 L 277 450 L 275 450 L 274 448 L 273 450 L 272 448 L 269 449 L 267 449 L 259 447 L 256 446 L 254 447 L 248 444 L 242 434 L 239 431 L 240 430 L 237 428 Q 238 424 235 425 L 235 422 L 233 422 L 231 418 Q 232 415 230 416 Q 225 416 226 411 Q 225 408 224 410 L 219 405 L 218 405 L 216 404 L 216 402 Q 212 403 213 400 L 209 398 L 207 396 L 204 392 L 203 393 L 202 392 L 200 390 L 197 386 L 195 385 L 196 387 L 193 384 Q 190 385 191 382 L 183 377 L 184 375 L 183 375 L 182 374 L 183 372 L 181 373 L 180 370 L 179 373 L 178 372 L 166 362 L 163 358 Q 159 359 161 355 L 160 355 L 160 357 L 158 356 Q 159 352 157 353 L 155 353 L 151 350 L 153 350 Q 154 346 149 348 L 147 346 L 144 344 L 142 342 L 143 340 L 140 340 Q 141 337 138 338 L 138 336 L 137 338 L 134 336 L 135 334 Q 136 331 134 332 L 130 332 L 124 328 L 124 326 L 120 326 Z M 380 330 Q 378 333 381 332 L 380 330 Z M 153 332 L 151 337 L 152 342 L 157 346 L 156 348 L 158 347 L 160 348 Q 163 347 162 350 Q 169 350 173 357 Q 176 356 175 360 L 185 364 L 188 367 Q 190 366 189 369 L 195 372 Q 197 371 196 375 L 198 374 L 201 376 L 200 378 L 202 378 L 204 378 L 208 381 L 209 384 L 211 383 L 212 386 L 214 385 L 214 387 L 218 388 L 219 392 L 221 391 L 220 393 L 223 394 L 225 394 L 225 396 L 228 395 L 229 398 L 231 397 L 230 399 L 232 399 L 233 402 L 235 401 L 242 405 L 242 406 Q 239 405 240 408 L 244 407 L 247 409 L 248 412 L 250 411 L 255 416 L 256 415 L 261 420 L 268 420 L 268 422 L 271 421 L 280 422 L 284 422 L 286 424 L 287 423 L 289 424 Q 290 427 292 425 L 302 430 L 307 431 L 310 434 L 312 433 L 314 436 L 315 434 L 320 436 L 322 439 L 326 438 Q 327 441 329 439 L 334 441 L 335 444 L 337 443 L 339 444 L 336 445 L 341 445 L 340 448 L 342 448 L 343 445 L 347 447 L 349 447 L 348 449 L 353 449 L 352 451 L 355 452 L 356 450 Q 356 453 361 452 L 361 454 L 363 453 Q 365 452 364 455 L 366 454 Q 368 453 367 456 L 369 455 L 368 457 L 373 457 L 377 460 L 382 462 L 380 463 L 383 464 L 383 463 L 386 462 L 400 468 L 401 471 Q 403 470 401 469 L 403 469 Q 406 468 405 471 L 407 470 L 407 472 L 409 471 L 421 477 L 426 478 L 426 480 L 429 479 L 428 481 L 432 481 L 433 481 Q 431 485 436 484 L 434 482 L 436 482 Q 439 481 438 484 L 440 483 L 450 488 L 448 489 L 453 489 L 455 489 L 460 491 L 462 491 L 464 492 L 465 495 L 467 494 L 467 496 Q 469 497 468 495 L 469 495 Q 468 497 473 496 L 472 498 L 473 499 L 475 498 L 476 498 Q 475 501 478 500 L 477 499 L 479 498 L 483 500 Q 485 499 484 502 L 489 502 L 489 504 L 491 503 L 494 504 Q 496 505 494 507 Q 496 510 498 506 L 503 508 Q 505 507 504 511 L 507 509 L 508 510 Q 510 509 509 512 Q 511 510 514 514 L 515 513 L 518 514 Q 520 513 519 516 L 521 515 L 520 517 L 524 517 L 525 520 L 525 519 L 527 517 L 530 520 L 531 519 Q 532 522 536 521 L 537 523 L 538 521 L 538 523 L 543 523 L 543 520 L 543 517 Q 540 518 541 514 L 540 514 L 540 513 L 539 512 L 539 511 Q 540 506 536 508 L 536 510 L 535 505 L 534 507 L 531 502 L 530 502 L 527 498 L 527 496 L 525 496 Q 526 493 524 494 L 524 493 L 522 491 L 520 488 L 519 488 L 518 486 L 520 486 Q 521 483 518 484 L 516 485 Q 517 482 514 483 L 512 479 L 512 476 L 510 477 L 507 474 Q 508 471 505 472 L 503 468 L 499 464 L 500 463 L 499 462 L 497 458 L 494 457 Q 491 456 492 453 L 491 453 L 489 450 L 491 449 L 491 448 L 488 449 L 484 443 L 482 443 L 483 440 L 480 437 L 480 439 L 478 439 Q 475 440 476 438 L 475 438 L 471 437 L 469 437 L 460 435 L 458 435 L 456 435 L 457 433 L 455 434 Q 452 435 453 432 L 450 433 L 444 432 L 442 432 L 438 431 Q 436 427 435 430 Q 432 431 433 429 L 432 429 L 422 428 Q 420 425 416 426 L 416 425 L 414 424 L 414 426 L 412 424 L 409 425 L 397 423 L 395 420 L 390 421 L 385 420 L 381 416 L 378 417 L 380 417 L 382 420 L 377 419 L 377 416 L 376 418 L 373 416 L 370 417 L 367 416 L 364 417 L 367 419 L 366 418 L 364 419 L 367 424 L 370 425 L 372 429 L 372 431 L 368 428 L 368 426 L 366 427 L 365 425 L 362 424 L 358 420 L 353 417 L 347 411 Q 348 408 345 409 L 342 408 Q 339 409 340 407 L 339 407 L 337 404 L 334 403 L 332 401 L 331 401 L 329 398 L 323 395 L 320 392 Q 317 393 318 391 L 315 388 L 313 386 L 307 383 L 307 382 Q 306 379 305 381 L 300 378 L 300 376 L 296 376 L 295 373 L 294 373 L 292 372 L 290 368 L 289 370 Q 286 369 288 368 L 288 364 L 287 366 Q 283 367 284 365 L 283 365 L 280 364 L 278 360 Q 275 361 276 359 L 273 358 Q 274 354 270 356 L 270 355 L 268 352 L 266 352 Q 263 353 264 350 L 254 343 Q 251 344 252 341 L 254 341 Q 253 344 256 343 L 256 341 L 249 340 L 242 335 L 243 332 L 233 332 L 232 334 L 205 334 L 204 332 L 181 332 L 180 333 L 169 333 L 168 332 Q 163 331 164 334 Q 156 335 153 332 Z M 104 336 L 104 338 L 106 337 L 104 336 Z M 149 336 L 150 338 Q 151 335 149 336 Z M 101 341 Q 100 344 103 343 Q 104 340 101 341 Z M 96 344 Q 95 347 98 346 Q 99 343 96 344 Z M 259 344 L 260 346 Q 261 343 259 344 Z M 155 348 Q 153 351 156 350 L 155 348 Z M 163 351 L 167 355 L 168 355 L 163 351 Z M 406 357 L 407 359 Q 408 356 406 357 Z M 172 358 L 172 360 L 174 359 L 172 358 Z M 77 364 L 76 366 L 78 367 L 77 364 Z M 415 365 Q 413 368 416 367 L 415 365 Z M 72 368 Q 70 372 74 371 L 74 369 L 72 368 Z M 188 370 Q 187 373 190 372 Q 191 369 188 370 Z M 69 372 L 69 373 L 71 373 L 69 372 Z M 185 376 L 185 377 L 188 377 L 185 376 Z M 320 388 L 318 390 L 320 390 L 320 388 Z M 81 390 Q 80 393 83 392 Q 84 389 81 390 Z M 336 400 L 334 402 L 336 402 L 336 400 Z M 235 402 L 234 404 L 236 403 L 235 402 Z M 245 409 L 244 412 L 245 412 L 245 409 Z M 407 410 L 405 412 L 407 412 L 407 410 Z M 463 417 Q 460 421 464 420 L 463 417 Z M 360 420 L 360 421 L 362 421 L 360 420 Z M 272 422 L 273 424 L 274 424 L 272 422 Z M 363 422 L 363 424 L 365 423 L 363 422 Z M 240 424 L 238 426 L 240 426 L 240 424 Z M 288 426 L 288 428 L 290 427 L 288 426 Z M 370 426 L 369 428 L 371 429 L 370 426 Z M 309 434 Q 307 437 310 436 L 309 434 Z M 362 455 L 362 456 L 364 456 L 362 455 Z M 315 456 L 313 458 L 316 458 L 315 456 Z M 402 470 L 402 472 L 404 471 L 402 470 Z M 413 474 L 413 475 L 415 475 L 413 474 Z M 445 486 Q 443 489 446 488 L 445 486 Z M 399 488 Q 397 491 400 490 L 399 488 Z M 307 502 L 304 503 L 304 504 Q 307 505 308 503 L 307 502 Z M 414 510 Q 414 514 416 511 L 414 510 Z M 419 511 L 419 512 L 422 512 L 419 511 Z M 513 514 Q 511 517 514 516 L 513 514 Z " /><path fill="rgb(0,0,0)" stroke="rgb(0,0,0)" stroke-width="1" opacity="0" d="M 211.5 188 L 214 189.5 L 214.5 191 L 216.5 190 L 216 191.5 Q 215.3 193.8 217.5 193 L 219.5 192 L 221 195 Q 214.6 196.3 213 191.5 Q 214.1 188.2 211.5 189 L 211.5 188 Z " /><path fill="rgb(0,0,0)" stroke="rgb(0,0,0)" stroke-width="1" opacity="0" d="M 341.5 190 L 342.5 192 L 341.5 190 Z " /><path fill="rgb(0,0,0)" stroke="rgb(0,0,0)" stroke-width="1" opacity="0" d="M 236.5 333 L 240 333.5 L 236.5 334 L 236.5 333 Z " /><path fill="rgb(0,0,0)" stroke="rgb(0,0,0)" stroke-width="1" opacity="0" d="M 310.5 385 L 311.5 387 L 310.5 385 Z " /><path fill="rgb(0,0,0)" stroke="rgb(0,0,0)" stroke-width="1" opacity="0" d="M 96.5 398 L 97.5 400 L 96.5 398 Z " /><path fill="rgb(0,0,0)" stroke="rgb(0,0,0)" stroke-width="1" opacity="0" d="M 344.5 410 L 346.5 413 L 344.5 410 Z " /><path fill="rgb(0,0,0)" stroke="rgb(0,0,0)" stroke-width="1" opacity="0" d="M 541.5 520 L 540.5 522 L 541.5 520 Z " /><path fill="rgb(253,253,253)" stroke="rgb(253,253,253)" stroke-width="1" opacity="0.996078431372549" d="M 78 139 L 124.5 139 L 128.5 141 L 308.5 187 L 313 189.5 L 321 209.5 L 325.5 214 L 413 276.5 L 407.5 277 L 406.5 276 L 392.5 276 L 391.5 275 L 336.5 272 L 332.5 270 L 190.5 166 Q 185.8 168.3 190 170.5 L 211 198 L 123.5 198 L 123 196.5 L 78 139 Z " /><path fill="rgb(253,253,253)" stroke="rgb(253,253,253)" stroke-width="1" opacity="0.996078431372549" d="M 202.5 179 L 206 181.5 L 204.5 182 L 202.5 179 Z " /><path fill="rgb(253,253,253)" stroke="rgb(253,253,253)" stroke-width="1" opacity="0.996078431372549" d="M 368.5 211 L 474.5 216 L 507 240.5 Q 507.8 242.8 505.5 242 L 459.5 284 L 452 277.5 L 451.5 276 L 450.5 277 L 446.5 273 L 372.5 216 L 368.5 211 Z " /><path fill="rgb(253,253,253)" stroke="rgb(253,253,253)" stroke-width="1" opacity="0.996078431372549" d="M 145.5 219 L 201.5 219 L 299.5 289 L 335.5 295 L 346 305.5 L 451 413.5 L 449.5 413 L 350.5 392 L 267.5 326 L 211.5 308 L 208 305.5 L 146 221.5 L 145.5 219 Z " /><path fill="rgb(253,253,253)" stroke="rgb(253,253,253)" stroke-width="1" opacity="0.996078431372549" d="M 121 331 L 123.5 331 L 132.5 338 L 153 357.5 Q 152.3 359.8 154.5 359 Q 163.1 368.2 174 374 Q 172.9 376.7 175.5 376 L 188 386.5 L 186.5 387 L 185.5 386 L 138.5 383 L 137.5 382 L 127.5 382 L 126.5 381 L 91.5 379 L 90.5 378 L 75 378 L 80.5 371 L 121 332.5 L 121 331 Z " /><path fill="rgb(253,253,253)" stroke="rgb(253,253,253)" stroke-width="1" opacity="0.996078431372549" d="M 158.5 339 L 239.5 339 L 389.5 451 L 391.5 451 Q 396.8 448.3 391 445.5 L 374 423.5 L 378.5 423 L 393.5 427 L 432.5 434 L 437.5 436 L 476.5 443 L 479 445.5 L 523 501.5 L 516.5 502 L 509.5 500 L 489.5 498 L 305.5 426 L 285.5 417 L 264.5 416 L 163.5 344 L 158.5 339 Z " /><path fill="rgb(253,253,253)" stroke="rgb(253,253,253)" stroke-width="1" opacity="0.996078431372549" d="M 75.5 370 L 74.5 372 L 75.5 370 Z " /></svg>