<svg xmlns="http://www.w3.org/2000/svg" viewBox="60 100 500 400">
  <defs>
    <style>
      .s0{fill:#ffff00;stroke:#000000;stroke-width:4;}
      .s1{fill:none;stroke:#000000;stroke-width:4;}
    </style>
  </defs>
  <polygon class="s0" points="420 150 160 150 100 170 100 210 370 280 550 230 550 180 470 150 "/>
  <polygon class="s1" points="100 200 100 160 160 140 390 140 450 160 450 200 250 250 200 220 "/>
  <polygon class="s1" points="110 240 110 200 170 180 410 180 470 200 470 240 270 290 220 260 "/>
  <polygon class="s0" points="440 510 100 430 100 390 160 370 410 370 480 390 480 440 550 460 550 500 "/>
  <polygon class="s1" points="100 420 100 380 160 360 390 360 460 380 460 420 270 460 220 440 "/>
  <polygon class="s1" points="110 460 110 420 170 400 410 400 470 420 470 460 280 500 230 480 "/>
</svg>